<svg width="858" height="180" viewBox="0 0 858 180" fill="none" xmlns="http://www.w3.org/2000/svg">
  <g filter="url(#filter0_d_0_1)">
  <path d="M14 88.3769L50.2444 25.5997H122.733L158.978 88.3769L122.733 151.154H50.2444L14 88.3769Z" fill="#A7B8D3"/>
  <path d="M713 88.5L749.25 25.7132H821.75L858 88.5L821.75 151.287H749.25L713 88.5Z" fill="#A7B8D3"/>
  <rect x="190" y="26" width="564" height="125" fill="#A7B8D3"/>
  <path d="M53.7199 88.8733L98.4048 11.9067L187.775 11.9067L232.46 88.8733L187.775 165.84L98.4048 165.84L53.7199 88.8733Z" fill="#18448A"/>
  </g>
  <path d="M119.29 77.97H138.16V87.81H119.29V77.97ZM134.23 81.09H123.19V84.69H134.23V81.09ZM116.2 90.42H141.31V93.57H116.2V90.42ZM126.73 87.09H130.72V91.32H126.73V87.09ZM118.99 95.58H138.28V104.67H134.29V98.73H118.99V95.58ZM149.978 92.01H153.968V99.48H149.978V92.01ZM158.708 92.04H162.668V99.51H158.708V92.04ZM143.828 98.4H168.968V101.64H143.828V98.4ZM145.748 79.08H166.898V82.26H145.748V79.08ZM145.868 90.06H166.808V93.21H145.868V90.06ZM149.528 81.72H153.518V90.51H149.528V81.72ZM159.158 81.72H163.118V90.51H159.158V81.72Z" fill="white"/>
  <path d="M258.14 47.042H259.94V63.494H258.14V47.042ZM255.818 53.522H258.788V55.088H255.818V53.522ZM254.576 47.348H256.34V62.702H254.576V47.348ZM249.014 49.598H250.454V51.29C250.454 55.286 249.338 58.652 246.728 60.218L245.576 58.778C247.988 57.41 249.014 54.566 249.014 51.29V49.598ZM249.374 49.598H250.832V51.29C250.832 54.26 251.876 56.96 254.252 58.184L253.154 59.624C250.526 58.202 249.374 54.998 249.374 51.29V49.598ZM246.026 48.86H253.586V50.39H246.026V48.86ZM263.251 48.59H270.973V59.462H263.251V48.59ZM269.137 50.084H265.105V57.95H269.137V50.084ZM274.033 47.024H275.923V63.512H274.033V47.024ZM289.889 47.06H291.779V59.372H289.889V47.06ZM291.221 52.28H294.101V53.846H291.221V52.28ZM278.963 48.932H288.647V50.426H278.963V48.932ZM283.805 51.182C286.145 51.182 287.783 52.442 287.783 54.296C287.783 56.168 286.145 57.41 283.805 57.41C281.447 57.41 279.809 56.168 279.809 54.296C279.809 52.442 281.447 51.182 283.805 51.182ZM283.805 52.64C282.509 52.64 281.627 53.27 281.627 54.296C281.627 55.34 282.509 55.952 283.805 55.952C285.101 55.952 285.983 55.34 285.983 54.296C285.983 53.27 285.101 52.64 283.805 52.64ZM282.869 47.042H284.741V49.67H282.869V47.042ZM281.375 61.64H292.445V63.17H281.375V61.64ZM281.375 58.418H283.265V62.288H281.375V58.418ZM307.168 47.06H309.058V58.976H307.168V47.06ZM298.312 61.64H309.526V63.17H298.312V61.64ZM298.312 57.77H300.202V62.216H298.312V57.77ZM300.184 48.158C302.668 48.158 304.54 49.85 304.54 52.262C304.54 54.638 302.668 56.366 300.184 56.366C297.7 56.366 295.81 54.638 295.81 52.262C295.81 49.85 297.7 48.158 300.184 48.158ZM300.184 49.778C298.744 49.778 297.646 50.75 297.646 52.262C297.646 53.738 298.744 54.71 300.184 54.71C301.624 54.71 302.704 53.738 302.704 52.262C302.704 50.75 301.624 49.778 300.184 49.778ZM312.764 48.77H320.054V50.282H312.764V48.77ZM315.14 53.468H316.994V59.048H315.14V53.468ZM319.28 48.77H321.152V49.85C321.152 51.308 321.152 53.378 320.684 56.294L318.83 56.132C319.28 53.306 319.28 51.29 319.28 49.85V48.77ZM322.916 47.042H324.788V63.494H322.916V47.042ZM324.266 53.792H327.236V55.376H324.266V53.792ZM312.098 60.02L311.9 58.472C314.834 58.472 318.74 58.418 322.034 58.004L322.124 59.39C318.758 59.948 314.978 60.02 312.098 60.02ZM328.639 48.644H338.323V50.156H328.639V48.644ZM333.481 50.858C335.839 50.858 337.459 52.046 337.459 53.864C337.459 55.664 335.839 56.834 333.481 56.834C331.123 56.834 329.485 55.664 329.485 53.864C329.485 52.046 331.123 50.858 333.481 50.858ZM333.481 52.298C332.185 52.298 331.303 52.874 331.303 53.864C331.303 54.818 332.185 55.412 333.481 55.412C334.777 55.412 335.659 54.818 335.659 53.864C335.659 52.874 334.777 52.298 333.481 52.298ZM339.565 47.042H341.455V57.338H339.565V47.042ZM340.933 51.452H343.777V53H340.933V51.452ZM330.637 58.148H341.455V63.494H339.565V59.66H330.637V58.148ZM332.545 46.952H334.417V49.508H332.545V46.952ZM356.862 47.042H358.752V63.494H356.862V47.042ZM352.038 48.788H353.892C353.892 53.666 351.948 57.806 346.296 60.56L345.306 59.048C350.04 56.762 352.038 53.504 352.038 49.112V48.788ZM346.116 48.788H352.884V50.3H346.116V48.788ZM368.2 47.132H369.802V47.6C369.802 50.372 366.904 52.37 363.124 52.82L362.494 51.398C365.806 51.038 368.2 49.436 368.2 47.6V47.132ZM368.524 47.132H370.126V47.6C370.126 49.436 372.52 51.038 375.814 51.398L375.184 52.82C371.404 52.37 368.524 50.372 368.524 47.6V47.132ZM368.2 54.854H370.072V57.266H368.2V54.854ZM361.72 53.72H376.588V55.214H361.72V53.72ZM363.484 56.582H374.734V60.578H365.374V62.306H363.502V59.228H372.88V58.022H363.484V56.582ZM363.502 61.892H375.202V63.35H363.502V61.892ZM382.185 49.508H383.679V51.812C383.679 55.358 381.825 58.994 379.053 60.362L377.973 58.868C380.493 57.662 382.185 54.566 382.185 51.812V49.508ZM382.563 49.508H384.057V51.812C384.057 54.368 385.659 57.284 388.179 58.454L387.117 59.948C384.345 58.616 382.563 55.178 382.563 51.812V49.508ZM378.585 48.68H387.531V50.246H378.585V48.68ZM389.151 47.042H391.041V63.494H389.151V47.042ZM390.609 53.522H393.597V55.088H390.609V53.522ZM404.107 50.732H407.311V52.262H404.107V50.732ZM404.089 53.954H407.275V55.466H404.089V53.954ZM394.873 48.572H404.017V50.084H394.873V48.572ZM399.517 50.75C401.749 50.75 403.297 51.938 403.297 53.72C403.297 55.502 401.749 56.672 399.517 56.672C397.303 56.672 395.737 55.502 395.737 53.72C395.737 51.938 397.303 50.75 399.517 50.75ZM399.517 52.154C398.311 52.154 397.501 52.748 397.501 53.72C397.501 54.692 398.311 55.286 399.517 55.286C400.723 55.286 401.551 54.692 401.551 53.72C401.551 52.748 400.723 52.154 399.517 52.154ZM398.599 46.898H400.471V49.562H398.599V46.898ZM406.591 47.042H408.481V56.798H406.591V47.042ZM397.681 57.464H399.535V58.94H406.609V57.464H408.481V63.296H397.681V57.464ZM399.535 60.362V61.82H406.609V60.362H399.535ZM415.86 56.96H417.75V59.66H415.86V56.96ZM423.06 47.042H424.95V63.494H423.06V47.042ZM411.738 60.542L411.504 58.994C414.546 58.976 418.596 58.958 422.106 58.49L422.232 59.876C418.614 60.506 414.708 60.542 411.738 60.542ZM411.828 48.968H421.782V50.462H411.828V48.968ZM416.796 51.272C419.19 51.272 420.828 52.496 420.828 54.332C420.828 56.186 419.19 57.392 416.796 57.392C414.42 57.392 412.782 56.186 412.782 54.332C412.782 52.496 414.42 51.272 416.796 51.272ZM416.796 52.712C415.5 52.712 414.582 53.342 414.582 54.332C414.582 55.34 415.5 55.952 416.796 55.952C418.11 55.952 419.028 55.34 419.028 54.332C419.028 53.342 418.11 52.712 416.796 52.712ZM415.86 47.078H417.75V49.814H415.86V47.078ZM431.411 65.582C429.719 62.864 428.729 59.948 428.729 56.384C428.729 52.82 429.719 49.904 431.411 47.168L432.689 47.744C431.159 50.336 430.439 53.378 430.439 56.384C430.439 59.39 431.159 62.432 432.689 65.024L431.411 65.582ZM435.289 62V48.752H437.395V55.016H437.431L442.471 48.752H444.811L440.707 53.864L445.477 62H443.173L439.429 55.52L437.395 58.022V62H435.289ZM450.723 62.252C448.887 62.252 447.213 61.532 446.007 60.308L447.231 58.85C448.167 59.804 449.481 60.416 450.759 60.416C452.343 60.416 453.243 59.678 453.243 58.544C453.243 57.338 452.343 56.96 451.119 56.438L449.283 55.628C448.005 55.106 446.601 54.098 446.601 52.172C446.601 50.084 448.419 48.518 450.939 48.518C452.505 48.518 453.963 49.166 454.953 50.192L453.873 51.506C453.045 50.786 452.109 50.336 450.939 50.336C449.589 50.336 448.725 50.984 448.725 52.028C448.725 53.162 449.787 53.594 450.867 54.044L452.685 54.8C454.251 55.466 455.385 56.438 455.385 58.382C455.385 60.506 453.621 62.252 450.723 62.252ZM457.876 62V48.752H465.724V50.516H459.982V54.188H464.824V55.97H459.982V60.236H465.922V62H457.876ZM466.941 62L471.315 48.752H473.745L478.119 62H475.905L473.781 54.818C473.331 53.378 472.935 51.884 472.521 50.408H472.449C472.053 51.902 471.657 53.378 471.207 54.818L469.065 62H466.941ZM469.407 58.238V56.6H475.599V58.238H469.407ZM480.263 65.582L478.967 65.024C480.497 62.432 481.235 59.39 481.235 56.384C481.235 53.378 480.497 50.336 478.967 47.744L480.263 47.168C481.937 49.904 482.927 52.82 482.927 56.384C482.927 59.948 481.937 62.864 480.263 65.582ZM489.426 54.728H504.294V56.276H489.426V54.728ZM491.262 51.848H502.584V53.36H491.262V51.848ZM491.262 47.6H502.476V49.13H493.134V52.586H491.262V47.6ZM496.824 57.5C500.352 57.5 502.494 58.58 502.494 60.488C502.494 62.396 500.352 63.476 496.824 63.476C493.296 63.476 491.154 62.396 491.154 60.488C491.154 58.58 493.296 57.5 496.824 57.5ZM496.824 58.94C494.412 58.94 493.062 59.48 493.062 60.488C493.062 61.496 494.412 62.018 496.824 62.018C499.236 62.018 500.586 61.496 500.586 60.488C500.586 59.48 499.236 58.94 496.824 58.94ZM506.686 48.77H513.976V50.282H506.686V48.77ZM509.062 53.468H510.916V59.048H509.062V53.468ZM513.202 48.77H515.074V49.85C515.074 51.308 515.074 53.378 514.606 56.294L512.752 56.132C513.202 53.306 513.202 51.29 513.202 49.85V48.77ZM516.838 47.042H518.71V63.494H516.838V47.042ZM518.188 53.792H521.158V55.376H518.188V53.792ZM506.02 60.02L505.822 58.472C508.756 58.472 512.662 58.418 515.956 58.004L516.046 59.39C512.68 59.948 508.9 60.02 506.02 60.02ZM527.853 48.194C530.427 48.194 532.299 49.814 532.299 52.136C532.299 54.476 530.427 56.096 527.853 56.096C525.279 56.096 523.371 54.476 523.371 52.136C523.371 49.814 525.279 48.194 527.853 48.194ZM527.853 49.814C526.341 49.814 525.225 50.714 525.225 52.136C525.225 53.558 526.341 54.476 527.853 54.476C529.347 54.476 530.463 53.558 530.463 52.136C530.463 50.714 529.347 49.814 527.853 49.814ZM534.189 47.024H536.079V63.512H534.189V47.024ZM522.849 60.038L522.615 58.49C525.567 58.49 529.653 58.454 533.199 57.932L533.343 59.3C529.707 60.002 525.747 60.038 522.849 60.038ZM546.744 57.32H548.67V63.494H546.744V57.32ZM552.414 57.32H554.34V63.494H552.414V57.32ZM543.126 56.312H558.03V57.842H543.126V56.312ZM550.542 47.654C554.016 47.654 556.374 49.058 556.374 51.29C556.374 53.486 554.016 54.908 550.542 54.908C547.086 54.908 544.71 53.486 544.71 51.29C544.71 49.058 547.086 47.654 550.542 47.654ZM550.542 49.166C548.184 49.166 546.636 49.958 546.636 51.29C546.636 52.604 548.184 53.396 550.542 53.396C552.9 53.396 554.448 52.604 554.448 51.29C554.448 49.958 552.9 49.166 550.542 49.166ZM571.385 47.042H573.275V63.494H571.385V47.042ZM566.561 48.788H568.415C568.415 53.666 566.471 57.806 560.819 60.56L559.829 59.048C564.563 56.762 566.561 53.504 566.561 49.112V48.788ZM560.639 48.788H567.407V50.3H560.639V48.788ZM580.276 48.698H581.806V49.904C581.806 52.946 580.132 55.646 577.198 56.654L576.244 55.16C578.8 54.296 580.276 52.118 580.276 49.904V48.698ZM580.654 48.698H582.166V49.904C582.166 51.938 583.57 53.972 586.036 54.818L585.1 56.312C582.256 55.322 580.654 52.73 580.654 49.904V48.698ZM585.118 51.164H588.538V52.712H585.118V51.164ZM576.784 48.068H585.604V49.58H576.784V48.068ZM578.8 57.68H589.888V63.494H587.998V59.21H578.8V57.68ZM587.998 47.042H589.888V56.852H587.998V47.042ZM604.484 47.06H606.374V58.976H604.484V47.06ZM595.628 61.64H606.842V63.17H595.628V61.64ZM595.628 57.77H597.518V62.216H595.628V57.77ZM597.5 48.158C599.984 48.158 601.856 49.85 601.856 52.262C601.856 54.638 599.984 56.366 597.5 56.366C595.016 56.366 593.126 54.638 593.126 52.262C593.126 49.85 595.016 48.158 597.5 48.158ZM597.5 49.778C596.06 49.778 594.962 50.75 594.962 52.262C594.962 53.738 596.06 54.71 597.5 54.71C598.94 54.71 600.02 53.738 600.02 52.262C600.02 50.75 598.94 49.778 597.5 49.778ZM620.946 49.49H625.842V51.02H620.946V49.49ZM620.946 53.45H625.842V54.98H620.946V53.45ZM625.158 47.06H627.048V59.156H625.158V47.06ZM616.392 61.64H627.462V63.17H616.392V61.64ZM616.392 57.932H618.264V62.378H616.392V57.932ZM617.922 48.068C620.352 48.068 622.206 49.796 622.206 52.244C622.206 54.674 620.352 56.42 617.922 56.42C615.492 56.42 613.638 54.674 613.638 52.244C613.638 49.796 615.492 48.068 617.922 48.068ZM617.922 49.724C616.5 49.724 615.438 50.732 615.438 52.244C615.438 53.756 616.5 54.764 617.922 54.764C619.344 54.764 620.406 53.756 620.406 52.244C620.406 50.732 619.344 49.724 617.922 49.724ZM636.334 51.506H639.844V53.018H636.334V51.506ZM636.226 55.628H639.79V57.14H636.226V55.628ZM642.22 47.042H644.038V63.494H642.22V47.042ZM638.89 47.438H640.654V62.702H638.89V47.438ZM635.2 49.058H637.018C637.018 53.522 635.434 57.338 630.934 60.002L629.854 58.67C633.652 56.384 635.2 53.342 635.2 49.418V49.058ZM630.682 49.058H635.884V50.588H630.682V49.058ZM650.823 56.87C650.031 56.87 649.437 56.24 649.437 55.412C649.437 54.548 650.031 53.936 650.823 53.936C651.579 53.936 652.209 54.548 652.209 55.412C652.209 56.24 651.579 56.87 650.823 56.87ZM666.127 50.732H669.331V52.262H666.127V50.732ZM666.109 53.954H669.295V55.466H666.109V53.954ZM656.893 48.572H666.037V50.084H656.893V48.572ZM661.537 50.75C663.769 50.75 665.317 51.938 665.317 53.72C665.317 55.502 663.769 56.672 661.537 56.672C659.323 56.672 657.757 55.502 657.757 53.72C657.757 51.938 659.323 50.75 661.537 50.75ZM661.537 52.154C660.331 52.154 659.521 52.748 659.521 53.72C659.521 54.692 660.331 55.286 661.537 55.286C662.743 55.286 663.571 54.692 663.571 53.72C663.571 52.748 662.743 52.154 661.537 52.154ZM660.619 46.898H662.491V49.562H660.619V46.898ZM668.611 47.042H670.501V56.798H668.611V47.042ZM659.701 57.464H661.555V58.94H668.629V57.464H670.501V63.296H659.701V57.464ZM661.555 60.362V61.82H668.629V60.362H661.555ZM674.081 55.052H675.287C678.455 55.052 680.057 54.998 681.965 54.656L682.163 56.168C680.183 56.528 678.527 56.582 675.287 56.582H674.081V55.052ZM674.045 48.014H681.191V52.91H675.953V56.024H674.081V51.47H679.337V49.526H674.045V48.014ZM685.169 47.06H687.059V57.176H685.169V47.06ZM682.217 49.418H685.547V50.93H682.217V49.418ZM682.217 52.856H685.547V54.386H682.217V52.856ZM675.935 58.004H687.059V63.512H685.169V59.516H675.935V58.004ZM697.408 47.294C701.098 47.294 703.276 48.302 703.276 50.138C703.276 51.956 701.098 52.964 697.408 52.964C693.718 52.964 691.558 51.956 691.558 50.138C691.558 48.302 693.718 47.294 697.408 47.294ZM697.408 48.698C694.87 48.698 693.502 49.202 693.502 50.138C693.502 51.074 694.87 51.56 697.408 51.56C699.964 51.56 701.314 51.074 701.314 50.138C701.314 49.202 699.964 48.698 697.408 48.698ZM689.974 53.918H704.842V55.412H689.974V53.918ZM691.738 56.618H702.988V60.542H693.628V62.306H691.756V59.21H701.134V58.022H691.738V56.618ZM691.756 61.892H703.456V63.35H691.756V61.892ZM710.576 55.646H725.444V57.14H710.576V55.646ZM717.056 53.684H718.928V56.24H717.056V53.684ZM712.484 52.856H723.77V54.296H712.484V52.856ZM712.484 47.492H723.662V48.95H714.356V53.666H712.484V47.492ZM713.816 50.174H723.266V51.578H713.816V50.174ZM717.992 58.148C721.592 58.148 723.662 59.084 723.662 60.812C723.662 62.54 721.592 63.476 717.992 63.476C714.392 63.476 712.322 62.54 712.322 60.812C712.322 59.084 714.392 58.148 717.992 58.148ZM717.992 59.552C715.508 59.552 714.212 59.984 714.212 60.812C714.212 61.658 715.508 62.072 717.992 62.072C720.476 62.072 721.772 61.658 721.772 60.812C721.772 59.984 720.476 59.552 717.992 59.552ZM738.024 47.042H739.896V63.494H738.024V47.042ZM739.464 53.648H742.452V55.214H739.464V53.648ZM727.062 49.58H736.71V51.092H727.062V49.58ZM731.94 52.28C734.28 52.28 736.008 53.864 736.008 56.114C736.008 58.382 734.28 59.966 731.94 59.966C729.582 59.966 727.854 58.382 727.854 56.114C727.854 53.864 729.582 52.28 731.94 52.28ZM731.94 53.828C730.608 53.828 729.654 54.728 729.654 56.114C729.654 57.5 730.608 58.418 731.94 58.418C733.254 58.418 734.208 57.5 734.208 56.114C734.208 54.728 733.254 53.828 731.94 53.828ZM730.968 47.276H732.858V50.21H730.968V47.276ZM751.091 50.57H755.843V52.1H751.091V50.57ZM751.091 55.736H755.843V57.266H751.091V55.736ZM748.139 48.248C750.569 48.248 752.297 50.498 752.297 54.044C752.297 57.59 750.569 59.858 748.139 59.858C745.709 59.858 743.981 57.59 743.981 54.044C743.981 50.498 745.709 48.248 748.139 48.248ZM748.139 49.958C746.735 49.958 745.763 51.488 745.763 54.044C745.763 56.618 746.735 58.166 748.139 58.166C749.561 58.166 750.515 56.618 750.515 54.044C750.515 51.488 749.561 49.958 748.139 49.958ZM755.483 47.024H757.355V63.512H755.483V47.024ZM256.772 82.06H258.662V94.372H256.772V82.06ZM258.104 87.28H260.984V88.846H258.104V87.28ZM245.846 83.932H255.53V85.426H245.846V83.932ZM250.688 86.182C253.028 86.182 254.666 87.442 254.666 89.296C254.666 91.168 253.028 92.41 250.688 92.41C248.33 92.41 246.692 91.168 246.692 89.296C246.692 87.442 248.33 86.182 250.688 86.182ZM250.688 87.64C249.392 87.64 248.51 88.27 248.51 89.296C248.51 90.34 249.392 90.952 250.688 90.952C251.984 90.952 252.866 90.34 252.866 89.296C252.866 88.27 251.984 87.64 250.688 87.64ZM249.752 82.042H251.624V84.67H249.752V82.042ZM248.258 96.64H259.328V98.17H248.258V96.64ZM248.258 93.418H250.148V97.288H248.258V93.418ZM263.251 83.59H270.973V94.462H263.251V83.59ZM269.137 85.084H265.105V92.95H269.137V85.084ZM274.033 82.024H275.923V98.512H274.033V82.024ZM295.246 84.31H298.09V85.858H295.246V84.31ZM295.246 87.838H298.09V89.386H295.246V87.838ZM287.56 82.978C290.062 82.978 291.934 84.598 291.934 86.92C291.934 89.206 290.062 90.826 287.56 90.826C285.058 90.826 283.204 89.206 283.204 86.92C283.204 84.598 285.058 82.978 287.56 82.978ZM287.56 84.562C286.102 84.562 285.04 85.498 285.04 86.92C285.04 88.342 286.102 89.242 287.56 89.242C289.018 89.242 290.098 88.342 290.098 86.92C290.098 85.498 289.018 84.562 287.56 84.562ZM293.932 82.042H295.822V91.726H293.932V82.042ZM290.53 92.158C293.896 92.158 296.002 93.346 296.002 95.326C296.002 97.306 293.896 98.476 290.53 98.476C287.146 98.476 285.04 97.306 285.04 95.326C285.04 93.346 287.146 92.158 290.53 92.158ZM290.53 93.67C288.244 93.67 286.912 94.246 286.912 95.326C286.912 96.406 288.244 96.982 290.53 96.982C292.816 96.982 294.13 96.406 294.13 95.326C294.13 94.246 292.816 93.67 290.53 93.67ZM301.401 82.78H311.913V84.31H301.401V82.78ZM299.547 88.576H314.451V90.106H299.547V88.576ZM306.027 89.638H307.899V93.31H306.027V89.638ZM310.743 82.78H312.597V84.04C312.597 85.426 312.597 87.082 312.057 89.296L310.221 89.098C310.743 86.938 310.743 85.39 310.743 84.04V82.78ZM301.077 92.788H312.669V98.494H310.779V94.3H301.077V92.788ZM321.415 83.194C323.989 83.194 325.861 84.814 325.861 87.136C325.861 89.476 323.989 91.096 321.415 91.096C318.841 91.096 316.933 89.476 316.933 87.136C316.933 84.814 318.841 83.194 321.415 83.194ZM321.415 84.814C319.903 84.814 318.787 85.714 318.787 87.136C318.787 88.558 319.903 89.476 321.415 89.476C322.909 89.476 324.025 88.558 324.025 87.136C324.025 85.714 322.909 84.814 321.415 84.814ZM327.751 82.024H329.641V98.512H327.751V82.024ZM316.411 95.038L316.177 93.49C319.129 93.49 323.215 93.454 326.761 92.932L326.905 94.3C323.269 95.002 319.309 95.038 316.411 95.038ZM337.553 83.41H345.347V91.204H337.553V83.41ZM343.511 84.922H339.389V89.692H343.511V84.922ZM348.371 82.06H350.261V93.814H348.371V82.06ZM339.515 96.514H350.729V98.044H339.515V96.514ZM339.515 92.716H341.405V97.162H339.515V92.716ZM364.192 82.042H366.1V93.958H364.192V82.042ZM365.542 86.848H368.422V88.414H365.542V86.848ZM359.674 83.302H361.672C361.672 87.64 358.81 90.754 354.004 92.212L353.212 90.7C357.298 89.494 359.674 87.1 359.674 84.184V83.302ZM353.896 83.302H360.664V84.832H353.896V83.302ZM355.678 96.64H366.748V98.17H355.678V96.64ZM355.678 92.752H357.568V97.288H355.678V92.752ZM369.806 91.654H384.71V93.166H369.806V91.654ZM376.268 92.392H378.14V98.494H376.268V92.392ZM371.606 82.69H373.478V84.778H381.002V82.69H382.874V89.872H371.606V82.69ZM373.478 86.272V88.36H381.002V86.272H373.478ZM386.365 90.322H401.269V91.834H386.365V90.322ZM393.025 91.276H394.897V94.912H393.025V91.276ZM388.237 82.78H399.343V88.702H388.237V82.78ZM397.489 84.274H390.091V87.208H397.489V84.274ZM388.183 96.64H399.613V98.17H388.183V96.64ZM388.183 93.418H390.055V97.162H388.183V93.418ZM407.686 83.77H414.976V85.282H407.686V83.77ZM410.062 88.468H411.916V94.048H410.062V88.468ZM414.202 83.77H416.074V84.85C416.074 86.308 416.074 88.378 415.606 91.294L413.752 91.132C414.202 88.306 414.202 86.29 414.202 84.85V83.77ZM417.838 82.042H419.71V98.494H417.838V82.042ZM419.188 88.792H422.158V90.376H419.188V88.792ZM407.02 95.02L406.822 93.472C409.756 93.472 413.662 93.418 416.956 93.004L417.046 94.39C413.68 94.948 409.9 95.02 407.02 95.02ZM423.561 83.644H433.245V85.156H423.561V83.644ZM428.403 85.858C430.761 85.858 432.381 87.046 432.381 88.864C432.381 90.664 430.761 91.834 428.403 91.834C426.045 91.834 424.407 90.664 424.407 88.864C424.407 87.046 426.045 85.858 428.403 85.858ZM428.403 87.298C427.107 87.298 426.225 87.874 426.225 88.864C426.225 89.818 427.107 90.412 428.403 90.412C429.699 90.412 430.581 89.818 430.581 88.864C430.581 87.874 429.699 87.298 428.403 87.298ZM434.487 82.042H436.377V92.338H434.487V82.042ZM435.855 86.452H438.699V88H435.855V86.452ZM425.559 93.148H436.377V98.494H434.487V94.66H425.559V93.148ZM427.467 81.952H429.339V84.508H427.467V81.952ZM451.783 82.042H453.673V98.494H451.783V82.042ZM446.959 83.788H448.813C448.813 88.666 446.869 92.806 441.217 95.56L440.227 94.048C444.961 91.762 446.959 88.504 446.959 84.112V83.788ZM441.037 83.788H447.805V85.3H441.037V83.788ZM463.122 82.132H464.724V82.6C464.724 85.372 461.826 87.37 458.046 87.82L457.416 86.398C460.728 86.038 463.122 84.436 463.122 82.6V82.132ZM463.446 82.132H465.048V82.6C465.048 84.436 467.442 86.038 470.736 86.398L470.106 87.82C466.326 87.37 463.446 85.372 463.446 82.6V82.132ZM463.122 89.854H464.994V92.266H463.122V89.854ZM456.642 88.72H471.51V90.214H456.642V88.72ZM458.406 91.582H469.656V95.578H460.296V97.306H458.424V94.228H467.802V93.022H458.406V91.582ZM458.424 96.892H470.124V98.35H458.424V96.892ZM486.514 85.732H489.718V87.262H486.514V85.732ZM486.496 88.954H489.682V90.466H486.496V88.954ZM477.28 83.572H486.424V85.084H477.28V83.572ZM481.924 85.75C484.156 85.75 485.704 86.938 485.704 88.72C485.704 90.502 484.156 91.672 481.924 91.672C479.71 91.672 478.144 90.502 478.144 88.72C478.144 86.938 479.71 85.75 481.924 85.75ZM481.924 87.154C480.718 87.154 479.908 87.748 479.908 88.72C479.908 89.692 480.718 90.286 481.924 90.286C483.13 90.286 483.958 89.692 483.958 88.72C483.958 87.748 483.13 87.154 481.924 87.154ZM481.006 81.898H482.878V84.562H481.006V81.898ZM488.998 82.042H490.888V91.798H488.998V82.042ZM480.088 92.464H481.942V93.94H489.016V92.464H490.888V98.296H480.088V92.464ZM481.942 95.362V96.82H489.016V95.362H481.942ZM494.468 90.052H495.674C498.842 90.052 500.444 89.998 502.352 89.656L502.55 91.168C500.57 91.528 498.914 91.582 495.674 91.582H494.468V90.052ZM494.432 83.014H501.578V87.91H496.34V91.024H494.468V86.47H499.724V84.526H494.432V83.014ZM505.556 82.06H507.446V92.176H505.556V82.06ZM502.604 84.418H505.934V85.93H502.604V84.418ZM502.604 87.856H505.934V89.386H502.604V87.856ZM496.322 93.004H507.446V98.512H505.556V94.516H496.322V93.004ZM517.795 82.294C521.485 82.294 523.663 83.302 523.663 85.138C523.663 86.956 521.485 87.964 517.795 87.964C514.105 87.964 511.945 86.956 511.945 85.138C511.945 83.302 514.105 82.294 517.795 82.294ZM517.795 83.698C515.257 83.698 513.889 84.202 513.889 85.138C513.889 86.074 515.257 86.56 517.795 86.56C520.351 86.56 521.701 86.074 521.701 85.138C521.701 84.202 520.351 83.698 517.795 83.698ZM510.361 88.918H525.229V90.412H510.361V88.918ZM512.125 91.618H523.375V95.542H514.015V97.306H512.143V94.21H521.521V93.022H512.125V91.618ZM512.143 96.892H523.843V98.35H512.143V96.892ZM535.012 89.674H536.902V91.888H535.012V89.674ZM541.96 82.06H543.85V93.166H541.96V82.06ZM543.13 86.902H546.1V88.468H543.13V86.902ZM531.052 92.752L530.836 91.258C533.77 91.258 537.73 91.24 541.096 90.79L541.24 92.104C537.766 92.716 533.932 92.734 531.052 92.752ZM532.888 93.904H543.85V98.494H541.96V95.38H532.888V93.904ZM531.25 83.41H540.646V84.796H531.25V83.41ZM535.948 85.318C538.306 85.318 539.854 86.254 539.854 87.748C539.854 89.26 538.306 90.196 535.948 90.196C533.572 90.196 532.042 89.26 532.042 87.748C532.042 86.254 533.572 85.318 535.948 85.318ZM535.948 86.578C534.634 86.578 533.824 86.992 533.824 87.748C533.824 88.486 534.634 88.936 535.948 88.936C537.262 88.936 538.072 88.486 538.072 87.748C538.072 86.992 537.262 86.578 535.948 86.578ZM535.012 81.916H536.902V84.058H535.012V81.916ZM559.761 82.042H561.561V98.494H559.761V82.042ZM557.241 88.522H560.211V90.052H557.241V88.522ZM556.053 82.366H557.799V97.684H556.053V82.366ZM548.061 93.022H549.177C551.409 93.022 553.065 92.95 554.991 92.572L555.153 94.12C553.173 94.516 551.481 94.588 549.177 94.588H548.061V93.022ZM548.061 84.004H554.163V85.534H549.933V93.76H548.061V84.004ZM574.97 82.042H576.842V98.494H574.97V82.042ZM576.41 88.648H579.398V90.214H576.41V88.648ZM564.008 84.58H573.656V86.092H564.008V84.58ZM568.886 87.28C571.226 87.28 572.954 88.864 572.954 91.114C572.954 93.382 571.226 94.966 568.886 94.966C566.528 94.966 564.8 93.382 564.8 91.114C564.8 88.864 566.528 87.28 568.886 87.28ZM568.886 88.828C567.554 88.828 566.6 89.728 566.6 91.114C566.6 92.5 567.554 93.418 568.886 93.418C570.2 93.418 571.154 92.5 571.154 91.114C571.154 89.728 570.2 88.828 568.886 88.828ZM567.914 82.276H569.804V85.21H567.914V82.276ZM582.204 83.572H592.716V85.102H582.204V83.572ZM580.656 94.786H595.524V96.334H580.656V94.786ZM586.2 89.008H588.09V95.56H586.2V89.008ZM592.014 83.572H593.904V85.174C593.904 87.226 593.904 89.512 593.274 92.914L591.384 92.698C592.014 89.494 592.014 87.154 592.014 85.174V83.572ZM597.791 100.618L597.341 99.448C598.583 98.926 599.303 98.008 599.303 96.928L599.159 95.272L600.023 96.622C599.771 96.892 599.447 97 599.105 97C598.367 97 597.701 96.514 597.701 95.668C597.701 94.84 598.367 94.336 599.159 94.336C600.167 94.336 600.761 95.164 600.761 96.55C600.761 98.458 599.663 99.916 597.791 100.618ZM256.772 117.06H258.662V129.372H256.772V117.06ZM258.104 122.28H260.984V123.846H258.104V122.28ZM245.846 118.932H255.53V120.426H245.846V118.932ZM250.688 121.182C253.028 121.182 254.666 122.442 254.666 124.296C254.666 126.168 253.028 127.41 250.688 127.41C248.33 127.41 246.692 126.168 246.692 124.296C246.692 122.442 248.33 121.182 250.688 121.182ZM250.688 122.64C249.392 122.64 248.51 123.27 248.51 124.296C248.51 125.34 249.392 125.952 250.688 125.952C251.984 125.952 252.866 125.34 252.866 124.296C252.866 123.27 251.984 122.64 250.688 122.64ZM249.752 117.042H251.624V119.67H249.752V117.042ZM248.258 131.64H259.328V133.17H248.258V131.64ZM248.258 128.418H250.148V132.288H248.258V128.418ZM266.671 126.87C265.879 126.87 265.285 126.24 265.285 125.412C265.285 124.548 265.879 123.936 266.671 123.936C267.427 123.936 268.057 124.548 268.057 125.412C268.057 126.24 267.427 126.87 266.671 126.87ZM273.587 118.59H281.309V129.462H273.587V118.59ZM279.473 120.084H275.441V127.95H279.473V120.084ZM284.369 117.024H286.259V133.512H284.369V117.024ZM294.026 118.77H301.316V120.282H294.026V118.77ZM296.402 123.468H298.256V129.048H296.402V123.468ZM300.542 118.77H302.414V119.85C302.414 121.308 302.414 123.378 301.946 126.294L300.092 126.132C300.542 123.306 300.542 121.29 300.542 119.85V118.77ZM304.178 117.042H306.05V133.494H304.178V117.042ZM305.528 123.792H308.498V125.376H305.528V123.792ZM293.36 130.02L293.162 128.472C296.096 128.472 300.002 128.418 303.296 128.004L303.386 129.39C300.02 129.948 296.24 130.02 293.36 130.02ZM309.901 118.644H319.585V120.156H309.901V118.644ZM314.743 120.858C317.101 120.858 318.721 122.046 318.721 123.864C318.721 125.664 317.101 126.834 314.743 126.834C312.385 126.834 310.747 125.664 310.747 123.864C310.747 122.046 312.385 120.858 314.743 120.858ZM314.743 122.298C313.447 122.298 312.565 122.874 312.565 123.864C312.565 124.818 313.447 125.412 314.743 125.412C316.039 125.412 316.921 124.818 316.921 123.864C316.921 122.874 316.039 122.298 314.743 122.298ZM320.827 117.042H322.717V127.338H320.827V117.042ZM322.195 121.452H325.039V123H322.195V121.452ZM311.899 128.148H322.717V133.494H320.827V129.66H311.899V128.148ZM313.807 116.952H315.679V119.508H313.807V116.952ZM338.123 117.042H340.013V133.494H338.123V117.042ZM333.299 118.788H335.153C335.153 123.666 333.209 127.806 327.557 130.56L326.567 129.048C331.301 126.762 333.299 123.504 333.299 119.112V118.788ZM327.377 118.788H334.145V120.3H327.377V118.788ZM349.462 117.132H351.064V117.6C351.064 120.372 348.166 122.37 344.386 122.82L343.756 121.398C347.068 121.038 349.462 119.436 349.462 117.6V117.132ZM349.786 117.132H351.388V117.6C351.388 119.436 353.782 121.038 357.076 121.398L356.446 122.82C352.666 122.37 349.786 120.372 349.786 117.6V117.132ZM349.462 124.854H351.334V127.266H349.462V124.854ZM342.982 123.72H357.85V125.214H342.982V123.72ZM344.746 126.582H355.996V130.578H346.636V132.306H344.764V129.228H354.142V128.022H344.746V126.582ZM344.764 131.892H356.464V133.35H344.764V131.892ZM359.558 124.98H374.426V126.492H359.558V124.98ZM366.056 122.424H367.928V125.592H366.056V122.424ZM361.394 121.83H372.716V123.324H361.394V121.83ZM361.394 117.78H372.608V119.274H363.266V122.748H361.394V117.78ZM366.956 127.518C370.484 127.518 372.626 128.598 372.626 130.506C372.626 132.414 370.484 133.494 366.956 133.494C363.428 133.494 361.286 132.414 361.286 130.506C361.286 128.598 363.428 127.518 366.956 127.518ZM366.956 128.958C364.544 128.958 363.194 129.498 363.194 130.506C363.194 131.514 364.544 132.036 366.956 132.036C369.368 132.036 370.718 131.514 370.718 130.506C370.718 129.498 369.368 128.958 366.956 128.958ZM388.249 117.06H390.031V126.978H388.249V117.06ZM385.909 121.2H388.789V122.748H385.909V121.2ZM384.739 117.366H386.503V126.474H384.739V117.366ZM376.765 118.464H383.191V125.646H376.765V118.464ZM381.427 119.922H378.529V124.224H381.427V119.922ZM384.559 127.338C387.961 127.338 390.121 128.49 390.121 130.398C390.121 132.324 387.961 133.476 384.559 133.476C381.139 133.476 378.997 132.324 378.997 130.398C378.997 128.49 381.139 127.338 384.559 127.338ZM384.559 128.796C382.237 128.796 380.851 129.372 380.851 130.398C380.851 131.442 382.237 132.018 384.559 132.018C386.863 132.018 388.231 131.442 388.231 130.398C388.231 129.372 386.863 128.796 384.559 128.796ZM397.529 118.284H404.693V119.814H397.529V118.284ZM399.815 122.028H401.669V126.132H399.815V122.028ZM403.955 118.284H405.809V119.22C405.809 120.336 405.809 121.974 405.395 124.08L403.559 123.882C403.955 121.776 403.955 120.318 403.955 119.22V118.284ZM407.753 117.042H409.661V129.39H407.753V117.042ZM408.851 122.244H411.839V123.81H408.851V122.244ZM399.005 131.64H410.183V133.17H399.005V131.64ZM399.005 128.274H400.895V132.108H399.005V128.274ZM396.719 126.96L396.539 125.448C399.437 125.448 403.433 125.394 406.745 124.926L406.871 126.276C403.469 126.888 399.581 126.96 396.719 126.96ZM419.631 121.506H423.141V123.018H419.631V121.506ZM419.523 125.628H423.087V127.14H419.523V125.628ZM425.517 117.042H427.335V133.494H425.517V117.042ZM422.187 117.438H423.951V132.702H422.187V117.438ZM418.497 119.058H420.315C420.315 123.522 418.731 127.338 414.231 130.002L413.151 128.67C416.949 126.384 418.497 123.342 418.497 119.418V119.058ZM413.979 119.058H419.181V120.588H413.979V119.058ZM435.661 118.068H445.957V119.562H435.661V118.068ZM433.879 125.088H448.747V126.636H433.879V125.088ZM440.305 126.15H442.195V133.512H440.305V126.15ZM445.021 118.068H446.875V119.508C446.875 121.254 446.875 123.198 446.245 126.042L444.391 125.808C445.021 123.108 445.021 121.182 445.021 119.508V118.068ZM456.917 126.312H458.789V128.832H456.917V126.312ZM450.419 125.232H465.287V126.744H450.419V125.232ZM452.075 128.4H463.469V133.458H461.597V129.912H452.075V128.4ZM456.917 117.006H458.789V119.346H456.917V117.006ZM456.809 119.544H458.465V119.832C458.465 122.46 455.747 124.116 451.769 124.476L451.193 123.054C454.721 122.784 456.809 121.452 456.809 119.832V119.544ZM457.241 119.544H458.897V119.832C458.897 121.452 460.985 122.784 464.513 123.054L463.937 124.476C459.941 124.116 457.241 122.46 457.241 119.832V119.544ZM451.895 118.608H463.811V120.084H451.895V118.608ZM474.412 117.294C478.102 117.294 480.28 118.302 480.28 120.138C480.28 121.956 478.102 122.964 474.412 122.964C470.722 122.964 468.562 121.956 468.562 120.138C468.562 118.302 470.722 117.294 474.412 117.294ZM474.412 118.698C471.874 118.698 470.506 119.202 470.506 120.138C470.506 121.074 471.874 121.56 474.412 121.56C476.968 121.56 478.318 121.074 478.318 120.138C478.318 119.202 476.968 118.698 474.412 118.698ZM466.978 123.918H481.846V125.412H466.978V123.918ZM468.742 126.618H479.992V130.542H470.632V132.306H468.76V129.21H478.138V128.022H468.742V126.618ZM468.76 131.892H480.46V133.35H468.76V131.892ZM491.774 119.508H493.286V121.812C493.286 125.43 491.432 129.012 488.606 130.362L487.526 128.868C490.064 127.698 491.774 124.62 491.774 121.812V119.508ZM492.17 119.508H493.664V121.812C493.664 124.53 495.356 127.374 497.93 128.454L496.886 129.948C494.024 128.67 492.17 125.34 492.17 121.812V119.508ZM488.12 118.68H497.318V120.246H488.12V118.68ZM499.244 117.042H501.134V133.494H499.244V117.042ZM508.638 125.394H510.528V129.03H508.638V125.394ZM515.892 117.042H517.782V129.534H515.892V117.042ZM506.28 131.64H518.16V133.17H506.28V131.64ZM506.28 128.328H508.17V132.054H506.28V128.328ZM504.318 126.024L504.066 124.494C507.09 124.494 511.14 124.458 514.614 124.008L514.74 125.376C511.212 125.952 507.288 126.024 504.318 126.024ZM512.652 126.69H516.342V128.022H512.652V126.69ZM509.394 117.672C511.788 117.672 513.462 118.824 513.462 120.57C513.462 122.316 511.788 123.45 509.394 123.45C506.982 123.45 505.326 122.316 505.326 120.57C505.326 118.824 506.982 117.672 509.394 117.672ZM509.394 119.058C508.044 119.058 507.108 119.616 507.108 120.57C507.108 121.506 508.044 122.064 509.394 122.064C510.726 122.064 511.662 121.506 511.662 120.57C511.662 119.616 510.726 119.058 509.394 119.058Z" fill="black" fill-opacity="0.8"/>
  <defs>
  <filter id="filter0_d_0_1" x="0" y="11.9067" width="858" height="167.933" filterUnits="userSpaceOnUse" color-interpolation-filters="sRGB">
  <feFlood flood-opacity="0" result="BackgroundImageFix"/>
  <feColorMatrix in="SourceAlpha" type="matrix" values="0 0 0 0 0 0 0 0 0 0 0 0 0 0 0 0 0 0 127 0" result="hardAlpha"/>
  <feOffset dx="-10" dy="10"/>
  <feGaussianBlur stdDeviation="2"/>
  <feComposite in2="hardAlpha" operator="out"/>
  <feColorMatrix type="matrix" values="0 0 0 0 0 0 0 0 0 0 0 0 0 0 0 0 0 0 0.25 0"/>
  <feBlend mode="normal" in2="BackgroundImageFix" result="effect1_dropShadow_0_1"/>
  <feBlend mode="normal" in="SourceGraphic" in2="effect1_dropShadow_0_1" result="shape"/>
  </filter>
  </defs>
  </svg>
  