<svg width="635" height="406" viewBox="0 0 635 406" fill="none" xmlns="http://www.w3.org/2000/svg">
  <g filter="url(#filter0_d_0_1)">
  <rect x="270" y="3" width="95" height="50" fill="white" shape-rendering="crispEdges"/>
  <rect x="268.5" y="1.5" width="98" height="53" stroke="#7094B5" stroke-width="3" shape-rendering="crispEdges"/>
  <path d="M302.626 28.795H316.668V30.223H302.626V28.795ZM308.763 27.095H310.531V29.458H308.763V27.095ZM308.763 20.873H310.531V23.083H308.763V20.873ZM308.661 23.202H310.225V23.474C310.225 25.939 307.641 27.503 303.884 27.826L303.34 26.466C306.672 26.228 308.661 24.987 308.661 23.474V23.202ZM309.069 23.202H310.633V23.474C310.633 24.987 312.622 26.228 315.937 26.466L315.41 27.826C311.636 27.503 309.069 25.939 309.069 23.474V23.202ZM304.02 22.335H315.274V23.729H304.02V22.335ZM309.63 31.192C312.996 31.192 314.985 32.11 314.985 33.793C314.985 35.476 312.996 36.394 309.63 36.394C306.264 36.394 304.275 35.476 304.275 33.793C304.275 32.11 306.264 31.192 309.63 31.192ZM309.63 32.518C307.335 32.518 306.077 32.943 306.077 33.793C306.077 34.626 307.335 35.068 309.63 35.068C311.925 35.068 313.183 34.626 313.183 33.793C313.183 32.943 311.925 32.518 309.63 32.518ZM322.481 30.24H324.266V32.79H322.481V30.24ZM329.281 20.873H331.066V36.411H329.281V20.873ZM318.588 33.623L318.367 32.161C321.24 32.144 325.065 32.127 328.38 31.685L328.499 32.994C325.082 33.589 321.393 33.623 318.588 33.623ZM318.673 22.692H328.074V24.103H318.673V22.692ZM323.365 24.868C325.626 24.868 327.173 26.024 327.173 27.758C327.173 29.509 325.626 30.648 323.365 30.648C321.121 30.648 319.574 29.509 319.574 27.758C319.574 26.024 321.121 24.868 323.365 24.868ZM323.365 26.228C322.141 26.228 321.274 26.823 321.274 27.758C321.274 28.71 322.141 29.288 323.365 29.288C324.606 29.288 325.473 28.71 325.473 27.758C325.473 26.823 324.606 26.228 323.365 26.228ZM322.481 20.907H324.266V23.491H322.481V20.907Z" fill="black"/>
  </g>
  <g filter="url(#filter1_d_0_1)">
  <rect x="270" y="117" width="95" height="50" fill="white" shape-rendering="crispEdges"/>
  <rect x="268.5" y="115.5" width="98" height="53" stroke="#7094B5" stroke-width="3" shape-rendering="crispEdges"/>
  <path d="M305.823 134.856H307.608V150.428H305.823V134.856ZM299.329 136.012C301.658 136.012 303.341 138.137 303.341 141.486C303.341 144.835 301.658 146.977 299.329 146.977C297.017 146.977 295.334 144.835 295.334 141.486C295.334 138.137 297.017 136.012 299.329 136.012ZM299.329 137.627C297.969 137.627 297.034 139.072 297.034 141.486C297.034 143.917 297.969 145.379 299.329 145.379C300.689 145.379 301.624 143.917 301.624 141.486C301.624 139.072 300.689 137.627 299.329 137.627ZM314.118 136.148H315.563V138.698C315.563 142.319 313.948 145.787 311.279 147.147L310.191 145.719C312.605 144.546 314.118 141.571 314.118 138.698V136.148ZM314.458 136.148H315.886V138.698C315.886 141.469 317.348 144.291 319.677 145.447L318.589 146.858C316.005 145.515 314.458 142.2 314.458 138.698V136.148ZM320.714 134.873H322.499V150.411H320.714V134.873ZM322.091 141.027H324.913V142.506H322.091V141.027ZM329.756 136.573H331.218V137.695C331.218 140.602 329.637 143.118 326.849 144.07L325.965 142.659C328.396 141.826 329.756 139.82 329.756 137.695V136.573ZM330.096 136.573H331.541V137.695C331.541 139.616 332.833 141.418 335.213 142.183L334.363 143.577C331.609 142.693 330.096 140.381 330.096 137.695V136.573ZM326.458 135.978H334.805V137.406H326.458V135.978ZM336.437 134.873H338.222V144.172H336.437V134.873ZM337.729 138.647H340.415V140.126H337.729V138.647ZM333.224 144.529C336.403 144.529 338.392 145.617 338.392 147.453C338.392 149.306 336.403 150.394 333.224 150.394C330.028 150.394 328.039 149.306 328.039 147.453C328.039 145.617 330.028 144.529 333.224 144.529ZM333.224 145.94C331.065 145.94 329.807 146.467 329.807 147.453C329.807 148.456 331.065 149 333.224 149C335.383 149 336.624 148.456 336.624 147.453C336.624 146.467 335.383 145.94 333.224 145.94Z" fill="black"/>
  </g>
  <g filter="url(#filter2_d_0_1)">
  <rect x="533" y="117" width="95" height="50" fill="white" shape-rendering="crispEdges"/>
  <rect x="531.5" y="115.5" width="98" height="53" stroke="#7094B5" stroke-width="3" shape-rendering="crispEdges"/>
  <path d="M568.823 134.856H570.608V150.428H568.823V134.856ZM562.329 136.012C564.658 136.012 566.341 138.137 566.341 141.486C566.341 144.835 564.658 146.977 562.329 146.977C560.017 146.977 558.334 144.835 558.334 141.486C558.334 138.137 560.017 136.012 562.329 136.012ZM562.329 137.627C560.969 137.627 560.034 139.072 560.034 141.486C560.034 143.917 560.969 145.379 562.329 145.379C563.689 145.379 564.624 143.917 564.624 141.486C564.624 139.072 563.689 137.627 562.329 137.627ZM577.118 136.148H578.563V138.698C578.563 142.319 576.948 145.787 574.279 147.147L573.191 145.719C575.605 144.546 577.118 141.571 577.118 138.698V136.148ZM577.458 136.148H578.886V138.698C578.886 141.469 580.348 144.291 582.677 145.447L581.589 146.858C579.005 145.515 577.458 142.2 577.458 138.698V136.148ZM583.714 134.873H585.499V150.411H583.714V134.873ZM585.091 141.027H587.913V142.506H585.091V141.027ZM593.3 144.24H595.085V146.79H593.3V144.24ZM600.1 134.873H601.885V150.411H600.1V134.873ZM589.407 147.623L589.186 146.161C592.059 146.144 595.884 146.127 599.199 145.685L599.318 146.994C595.901 147.589 592.212 147.623 589.407 147.623ZM589.492 136.692H598.893V138.103H589.492V136.692ZM594.184 138.868C596.445 138.868 597.992 140.024 597.992 141.758C597.992 143.509 596.445 144.648 594.184 144.648C591.94 144.648 590.393 143.509 590.393 141.758C590.393 140.024 591.94 138.868 594.184 138.868ZM594.184 140.228C592.96 140.228 592.093 140.823 592.093 141.758C592.093 142.71 592.96 143.288 594.184 143.288C595.425 143.288 596.292 142.71 596.292 141.758C596.292 140.823 595.425 140.228 594.184 140.228ZM593.3 134.907H595.085V137.491H593.3V134.907Z" fill="black"/>
  </g>
  <g filter="url(#filter3_d_0_1)">
  <rect x="270" y="231" width="95" height="50" fill="white" shape-rendering="crispEdges"/>
  <rect x="268.5" y="229.5" width="98" height="53" stroke="#7094B5" stroke-width="3" shape-rendering="crispEdges"/>
  <path d="M306.876 256.761H308.661V260.195H306.876V256.761ZM313.727 248.873H315.512V260.671H313.727V248.873ZM304.649 262.66H315.869V264.105H304.649V262.66ZM304.649 259.532H306.434V263.051H304.649V259.532ZM302.796 257.356L302.558 255.911C305.414 255.911 309.239 255.877 312.52 255.452L312.639 256.744C309.307 257.288 305.601 257.356 302.796 257.356ZM310.667 257.985H314.152V259.243H310.667V257.985ZM307.59 249.468C309.851 249.468 311.432 250.556 311.432 252.205C311.432 253.854 309.851 254.925 307.59 254.925C305.312 254.925 303.748 253.854 303.748 252.205C303.748 250.556 305.312 249.468 307.59 249.468ZM307.59 250.777C306.315 250.777 305.431 251.304 305.431 252.205C305.431 253.089 306.315 253.616 307.59 253.616C308.848 253.616 309.732 253.089 309.732 252.205C309.732 251.304 308.848 250.777 307.59 250.777ZM321.937 250.573H323.399V251.695C323.399 254.602 321.818 257.118 319.03 258.07L318.146 256.659C320.577 255.826 321.937 253.82 321.937 251.695V250.573ZM322.277 250.573H323.722V251.695C323.722 253.616 325.014 255.418 327.394 256.183L326.544 257.577C323.79 256.693 322.277 254.381 322.277 251.695V250.573ZM318.639 249.978H326.986V251.406H318.639V249.978ZM328.618 248.873H330.403V258.172H328.618V248.873ZM329.91 252.647H332.596V254.126H329.91V252.647ZM325.405 258.529C328.584 258.529 330.573 259.617 330.573 261.453C330.573 263.306 328.584 264.394 325.405 264.394C322.209 264.394 320.22 263.306 320.22 261.453C320.22 259.617 322.209 258.529 325.405 258.529ZM325.405 259.94C323.246 259.94 321.988 260.467 321.988 261.453C321.988 262.456 323.246 263 325.405 263C327.564 263 328.805 262.456 328.805 261.453C328.805 260.467 327.564 259.94 325.405 259.94Z" fill="black"/>
  </g>
  <g filter="url(#filter4_d_0_1)">
  <rect x="270" y="345" width="95" height="50" fill="white" shape-rendering="crispEdges"/>
  <rect x="268.5" y="343.5" width="98" height="53" stroke="#7094B5" stroke-width="3" shape-rendering="crispEdges"/>
  <path d="M298.479 364.148H299.924V366.698C299.924 370.319 298.309 373.787 295.64 375.147L294.552 373.719C296.966 372.546 298.479 369.571 298.479 366.698V364.148ZM298.819 364.148H300.247V366.698C300.247 369.469 301.709 372.291 304.038 373.447L302.95 374.858C300.366 373.515 298.819 370.2 298.819 366.698V364.148ZM305.075 362.873H306.86V378.411H305.075V362.873ZM306.452 369.027H309.274V370.506H306.452V369.027ZM310.446 371.747H324.522V373.192H310.446V371.747ZM316.549 372.648H318.317V378.411H316.549V372.648ZM312.163 363.689H322.771V369.843H312.163V363.689ZM321.02 365.1H313.914V368.432H321.02V365.1ZM327.852 363.57H337.78V365.015H327.852V363.57ZM326.101 369.044H340.177V370.489H326.101V369.044ZM332.221 370.047H333.989V373.515H332.221V370.047ZM336.675 363.57H338.426V364.76C338.426 366.069 338.426 367.633 337.916 369.724L336.182 369.537C336.675 367.497 336.675 366.035 336.675 364.76V363.57ZM327.546 373.022H338.494V378.411H336.709V374.45H327.546V373.022Z" fill="black"/>
  </g>
  <g filter="url(#filter5_d_0_1)">
  <rect x="7" y="117" width="95" height="50" fill="white" shape-rendering="crispEdges"/>
  <rect x="5.5" y="115.5" width="98" height="53" stroke="#7094B5" stroke-width="3" shape-rendering="crispEdges"/>
  <path d="M49.9793 134.873H51.7643V143.611H49.9793V134.873ZM51.2713 138.477H53.9573V139.939H51.2713V138.477ZM45.6103 135.825H47.4973C47.4973 139.837 44.8453 142.642 40.2553 143.866L39.5583 142.455C43.4853 141.418 45.6103 139.293 45.6103 136.675V135.825ZM40.2553 135.825H46.6473V137.253H40.2553V135.825ZM41.8533 144.291H51.7643V150.224H41.8533V144.291ZM50.0133 145.719H43.6043V148.796H50.0133V145.719ZM58.937 136.148H60.382V138.698C60.382 142.319 58.767 145.787 56.098 147.147L55.01 145.719C57.424 144.546 58.937 141.571 58.937 138.698V136.148ZM59.277 136.148H60.705V138.698C60.705 141.469 62.167 144.291 64.496 145.447L63.408 146.858C60.824 145.515 59.277 142.2 59.277 138.698V136.148ZM65.533 134.873H67.318V150.411H65.533V134.873ZM66.91 141.027H69.732V142.506H66.91V141.027Z" fill="black"/>
  </g>
  <g filter="url(#filter6_d_0_1)">
  <rect x="7" y="3" width="95" height="50" fill="white" shape-rendering="crispEdges"/>
  <rect x="5.5" y="1.5" width="98" height="53" stroke="#7094B5" stroke-width="3" shape-rendering="crispEdges"/>
  <path d="M33.286 22.318H43.214V23.763H33.286V22.318ZM31.824 32.909H45.866V34.371H31.824V32.909ZM37.06 27.452H38.845V33.64H37.06V27.452ZM42.551 22.318H44.336V23.831C44.336 25.769 44.336 27.928 43.741 31.141L41.956 30.937C42.551 27.911 42.551 25.701 42.551 23.831V22.318ZM47.4457 28.693H61.5217V30.121H47.4457V28.693ZM53.7357 29.594H55.5037V33.028H53.7357V29.594ZM49.2137 21.57H59.7027V27.163H49.2137V21.57ZM57.9517 22.981H50.9647V25.752H57.9517V22.981ZM49.1627 34.66H59.9577V36.105H49.1627V34.66ZM49.1627 31.617H50.9307V35.153H49.1627V31.617ZM73.4373 20.873H75.2223V32.11H73.4373V20.873ZM74.6953 25.31H77.4153V26.789H74.6953V25.31ZM63.7473 28.013H64.9883C68.2693 28.013 70.0033 27.928 71.9923 27.503L72.1793 28.931C70.1393 29.373 68.3373 29.458 64.9883 29.458H63.7473V28.013ZM63.7473 22.165H70.6493V23.61H65.5153V28.778H63.7473V22.165ZM65.3963 34.66H75.8513V36.105H65.3963V34.66ZM65.3963 30.954H67.1813V35.357H65.3963V30.954Z" fill="black"/>
  </g>
  <g filter="url(#filter7_d_0_1)">
  <rect x="7" y="170" width="95" height="50" fill="white" shape-rendering="crispEdges"/>
  <rect x="5.5" y="168.5" width="98" height="53" stroke="#7094B5" stroke-width="3" shape-rendering="crispEdges"/>
  <path d="M19.8573 190.202H21.2683V192.378C21.2683 195.727 19.5173 199.161 16.8993 200.453L15.8793 199.042C18.2593 197.903 19.8573 194.979 19.8573 192.378V190.202ZM20.2143 190.202H21.6253V192.378C21.6253 194.792 23.1383 197.546 25.5183 198.651L24.5153 200.062C21.8973 198.804 20.2143 195.557 20.2143 192.378V190.202ZM16.4573 189.42H24.9063V190.899H16.4573V189.42ZM26.4363 187.873H28.2213V203.411H26.4363V187.873ZM27.8133 193.993H30.6353V195.472H27.8133V193.993ZM31.807 195.693H45.883V197.121H31.807V195.693ZM38.097 196.594H39.865V200.028H38.097V196.594ZM33.575 188.57H44.064V194.163H33.575V188.57ZM42.313 189.981H35.326V192.752H42.313V189.981ZM33.524 201.66H44.319V203.105H33.524V201.66ZM33.524 198.617H35.292V202.153H33.524V198.617ZM52.5117 188.553C54.8407 188.553 56.5237 189.879 56.5237 191.8C56.5237 193.721 54.8407 195.064 52.5117 195.064C50.1827 195.064 48.4997 193.721 48.4997 191.8C48.4997 189.879 50.1827 188.553 52.5117 188.553ZM52.5117 190.015C51.1687 190.015 50.2167 190.712 50.2167 191.8C50.2167 192.905 51.1687 193.585 52.5117 193.585C53.8547 193.585 54.8237 192.905 54.8237 191.8C54.8237 190.712 53.8547 190.015 52.5117 190.015ZM51.6957 196.713H53.4807V202.935H51.6957V196.713ZM58.5297 187.873H60.2977V203.411H58.5297V187.873ZM47.6837 197.665L47.4627 196.186C50.2677 196.186 54.1607 196.152 57.5267 195.642L57.6457 196.951C54.1947 197.614 50.4547 197.648 47.6837 197.665ZM67.3343 195.761H69.1193V199.195H67.3343V195.761ZM74.1853 187.873H75.9703V199.671H74.1853V187.873ZM65.1073 201.66H76.3273V203.105H65.1073V201.66ZM65.1073 198.532H66.8923V202.051H65.1073V198.532ZM63.2543 196.356L63.0163 194.911C65.8723 194.911 69.6973 194.877 72.9783 194.452L73.0973 195.744C69.7653 196.288 66.0593 196.356 63.2543 196.356ZM71.1253 196.985H74.6103V198.243H71.1253V196.985ZM68.0483 188.468C70.3093 188.468 71.8903 189.556 71.8903 191.205C71.8903 192.854 70.3093 193.925 68.0483 193.925C65.7703 193.925 64.2063 192.854 64.2063 191.205C64.2063 189.556 65.7703 188.468 68.0483 188.468ZM68.0483 189.777C66.7733 189.777 65.8893 190.304 65.8893 191.205C65.8893 192.089 66.7733 192.616 68.0483 192.616C69.3063 192.616 70.1903 192.089 70.1903 191.205C70.1903 190.304 69.3063 189.777 68.0483 189.777ZM82.939 197.24H84.724V199.79H82.939V197.24ZM89.739 187.873H91.524V203.411H89.739V187.873ZM79.046 200.623L78.825 199.161C81.698 199.144 85.523 199.127 88.838 198.685L88.957 199.994C85.54 200.589 81.851 200.623 79.046 200.623ZM79.131 189.692H88.532V191.103H79.131V189.692ZM83.823 191.868C86.084 191.868 87.631 193.024 87.631 194.758C87.631 196.509 86.084 197.648 83.823 197.648C81.579 197.648 80.032 196.509 80.032 194.758C80.032 193.024 81.579 191.868 83.823 191.868ZM83.823 193.228C82.599 193.228 81.732 193.823 81.732 194.758C81.732 195.71 82.599 196.288 83.823 196.288C85.064 196.288 85.931 195.71 85.931 194.758C85.931 193.823 85.064 193.228 83.823 193.228ZM82.939 187.907H84.724V190.491H82.939V187.907Z" fill="black"/>
  </g>
  <rect x="105" y="28" width="162" height="0" stroke="#686868"/>
  <line x1="105" y1="27.5" x2="267" y2="27.5" stroke="#686868"/>
  <rect x="105" y="142" width="162" height="0" stroke="#686868"/>
  <line x1="105" y1="141.5" x2="267" y2="141.5" stroke="#686868"/>
  <rect x="368" y="142" width="162" height="0" stroke="#686868"/>
  <line x1="368" y1="141.5" x2="530" y2="141.5" stroke="#686868"/>
  <rect x="318" y="56" width="58" height="0" transform="rotate(90 318 56)" stroke="#686868"/>
  <line x1="318.5" y1="56" x2="318.5" y2="114" stroke="#686868"/>
  <rect x="318" y="170" width="58" height="0" transform="rotate(90 318 170)" stroke="#686868"/>
  <line x1="318.5" y1="170" x2="318.5" y2="228" stroke="#686868"/>
  <rect x="318" y="284" width="58" height="0" transform="rotate(90 318 284)" stroke="#686868"/>
  <line x1="318.5" y1="284" x2="318.5" y2="342" stroke="#686868"/>
  <line x1="105.002" y1="194.5" x2="318.002" y2="195.533" stroke="#686868"/>
  <defs>
  <filter id="filter0_d_0_1" x="263" y="0" width="109" height="64" filterUnits="userSpaceOnUse" color-interpolation-filters="sRGB">
  <feFlood flood-opacity="0" result="BackgroundImageFix"/>
  <feColorMatrix in="SourceAlpha" type="matrix" values="0 0 0 0 0 0 0 0 0 0 0 0 0 0 0 0 0 0 127 0" result="hardAlpha"/>
  <feOffset dy="4"/>
  <feGaussianBlur stdDeviation="2"/>
  <feComposite in2="hardAlpha" operator="out"/>
  <feColorMatrix type="matrix" values="0 0 0 0 0 0 0 0 0 0 0 0 0 0 0 0 0 0 0.25 0"/>
  <feBlend mode="normal" in2="BackgroundImageFix" result="effect1_dropShadow_0_1"/>
  <feBlend mode="normal" in="SourceGraphic" in2="effect1_dropShadow_0_1" result="shape"/>
  </filter>
  <filter id="filter1_d_0_1" x="263" y="114" width="109" height="64" filterUnits="userSpaceOnUse" color-interpolation-filters="sRGB">
  <feFlood flood-opacity="0" result="BackgroundImageFix"/>
  <feColorMatrix in="SourceAlpha" type="matrix" values="0 0 0 0 0 0 0 0 0 0 0 0 0 0 0 0 0 0 127 0" result="hardAlpha"/>
  <feOffset dy="4"/>
  <feGaussianBlur stdDeviation="2"/>
  <feComposite in2="hardAlpha" operator="out"/>
  <feColorMatrix type="matrix" values="0 0 0 0 0 0 0 0 0 0 0 0 0 0 0 0 0 0 0.25 0"/>
  <feBlend mode="normal" in2="BackgroundImageFix" result="effect1_dropShadow_0_1"/>
  <feBlend mode="normal" in="SourceGraphic" in2="effect1_dropShadow_0_1" result="shape"/>
  </filter>
  <filter id="filter2_d_0_1" x="526" y="114" width="109" height="64" filterUnits="userSpaceOnUse" color-interpolation-filters="sRGB">
  <feFlood flood-opacity="0" result="BackgroundImageFix"/>
  <feColorMatrix in="SourceAlpha" type="matrix" values="0 0 0 0 0 0 0 0 0 0 0 0 0 0 0 0 0 0 127 0" result="hardAlpha"/>
  <feOffset dy="4"/>
  <feGaussianBlur stdDeviation="2"/>
  <feComposite in2="hardAlpha" operator="out"/>
  <feColorMatrix type="matrix" values="0 0 0 0 0 0 0 0 0 0 0 0 0 0 0 0 0 0 0.25 0"/>
  <feBlend mode="normal" in2="BackgroundImageFix" result="effect1_dropShadow_0_1"/>
  <feBlend mode="normal" in="SourceGraphic" in2="effect1_dropShadow_0_1" result="shape"/>
  </filter>
  <filter id="filter3_d_0_1" x="263" y="228" width="109" height="64" filterUnits="userSpaceOnUse" color-interpolation-filters="sRGB">
  <feFlood flood-opacity="0" result="BackgroundImageFix"/>
  <feColorMatrix in="SourceAlpha" type="matrix" values="0 0 0 0 0 0 0 0 0 0 0 0 0 0 0 0 0 0 127 0" result="hardAlpha"/>
  <feOffset dy="4"/>
  <feGaussianBlur stdDeviation="2"/>
  <feComposite in2="hardAlpha" operator="out"/>
  <feColorMatrix type="matrix" values="0 0 0 0 0 0 0 0 0 0 0 0 0 0 0 0 0 0 0.25 0"/>
  <feBlend mode="normal" in2="BackgroundImageFix" result="effect1_dropShadow_0_1"/>
  <feBlend mode="normal" in="SourceGraphic" in2="effect1_dropShadow_0_1" result="shape"/>
  </filter>
  <filter id="filter4_d_0_1" x="263" y="342" width="109" height="64" filterUnits="userSpaceOnUse" color-interpolation-filters="sRGB">
  <feFlood flood-opacity="0" result="BackgroundImageFix"/>
  <feColorMatrix in="SourceAlpha" type="matrix" values="0 0 0 0 0 0 0 0 0 0 0 0 0 0 0 0 0 0 127 0" result="hardAlpha"/>
  <feOffset dy="4"/>
  <feGaussianBlur stdDeviation="2"/>
  <feComposite in2="hardAlpha" operator="out"/>
  <feColorMatrix type="matrix" values="0 0 0 0 0 0 0 0 0 0 0 0 0 0 0 0 0 0 0.25 0"/>
  <feBlend mode="normal" in2="BackgroundImageFix" result="effect1_dropShadow_0_1"/>
  <feBlend mode="normal" in="SourceGraphic" in2="effect1_dropShadow_0_1" result="shape"/>
  </filter>
  <filter id="filter5_d_0_1" x="0" y="114" width="109" height="64" filterUnits="userSpaceOnUse" color-interpolation-filters="sRGB">
  <feFlood flood-opacity="0" result="BackgroundImageFix"/>
  <feColorMatrix in="SourceAlpha" type="matrix" values="0 0 0 0 0 0 0 0 0 0 0 0 0 0 0 0 0 0 127 0" result="hardAlpha"/>
  <feOffset dy="4"/>
  <feGaussianBlur stdDeviation="2"/>
  <feComposite in2="hardAlpha" operator="out"/>
  <feColorMatrix type="matrix" values="0 0 0 0 0 0 0 0 0 0 0 0 0 0 0 0 0 0 0.25 0"/>
  <feBlend mode="normal" in2="BackgroundImageFix" result="effect1_dropShadow_0_1"/>
  <feBlend mode="normal" in="SourceGraphic" in2="effect1_dropShadow_0_1" result="shape"/>
  </filter>
  <filter id="filter6_d_0_1" x="0" y="0" width="109" height="64" filterUnits="userSpaceOnUse" color-interpolation-filters="sRGB">
  <feFlood flood-opacity="0" result="BackgroundImageFix"/>
  <feColorMatrix in="SourceAlpha" type="matrix" values="0 0 0 0 0 0 0 0 0 0 0 0 0 0 0 0 0 0 127 0" result="hardAlpha"/>
  <feOffset dy="4"/>
  <feGaussianBlur stdDeviation="2"/>
  <feComposite in2="hardAlpha" operator="out"/>
  <feColorMatrix type="matrix" values="0 0 0 0 0 0 0 0 0 0 0 0 0 0 0 0 0 0 0.25 0"/>
  <feBlend mode="normal" in2="BackgroundImageFix" result="effect1_dropShadow_0_1"/>
  <feBlend mode="normal" in="SourceGraphic" in2="effect1_dropShadow_0_1" result="shape"/>
  </filter>
  <filter id="filter7_d_0_1" x="0" y="167" width="109" height="64" filterUnits="userSpaceOnUse" color-interpolation-filters="sRGB">
  <feFlood flood-opacity="0" result="BackgroundImageFix"/>
  <feColorMatrix in="SourceAlpha" type="matrix" values="0 0 0 0 0 0 0 0 0 0 0 0 0 0 0 0 0 0 127 0" result="hardAlpha"/>
  <feOffset dy="4"/>
  <feGaussianBlur stdDeviation="2"/>
  <feComposite in2="hardAlpha" operator="out"/>
  <feColorMatrix type="matrix" values="0 0 0 0 0 0 0 0 0 0 0 0 0 0 0 0 0 0 0.25 0"/>
  <feBlend mode="normal" in2="BackgroundImageFix" result="effect1_dropShadow_0_1"/>
  <feBlend mode="normal" in="SourceGraphic" in2="effect1_dropShadow_0_1" result="shape"/>
  </filter>
  </defs>
  </svg>
  