<svg width="40" height="41" viewBox="0 0 40 41" fill="none" xmlns="http://www.w3.org/2000/svg">
  <path d="M32.6667 35.5L22.1667 25C21.3333 25.6667 20.375 26.1944 19.2917 26.5833C18.2083 26.9722 17.0556 27.1667 15.8333 27.1667C12.8056 27.1667 10.2431 26.1181 8.14583 24.0208C6.04861 21.9236 5 19.3611 5 16.3333C5 13.3056 6.04861 10.7431 8.14583 8.64583C10.2431 6.54861 12.8056 5.5 15.8333 5.5C18.8611 5.5 21.4236 6.54861 23.5208 8.64583C25.6181 10.7431 26.6667 13.3056 26.6667 16.3333C26.6667 17.5556 26.4722 18.7083 26.0833 19.7917C25.6944 20.875 25.1667 21.8333 24.5 22.6667L35 33.1667L32.6667 35.5ZM15.8333 23.8333C17.9167 23.8333 19.6875 23.1042 21.1458 21.6458C22.6042 20.1875 23.3333 18.4167 23.3333 16.3333C23.3333 14.25 22.6042 12.4792 21.1458 11.0208C19.6875 9.5625 17.9167 8.83333 15.8333 8.83333C13.75 8.83333 11.9792 9.5625 10.5208 11.0208C9.0625 12.4792 8.33333 14.25 8.33333 16.3333C8.33333 18.4167 9.0625 20.1875 10.5208 21.6458C11.9792 23.1042 13.75 23.8333 15.8333 23.8333Z" fill="#5F6368"/>
  </svg>
  