<svg width="858" height="180" viewBox="0 0 858 180" fill="none" xmlns="http://www.w3.org/2000/svg">
  <g filter="url(#filter0_d_0_1)">
  <path d="M14 88.3769L50.2444 25.5997H122.733L158.978 88.3769L122.733 151.154H50.2444L14 88.3769Z" fill="#A7B8D3"/>
  <path d="M713 88.5L749.25 25.7132H821.75L858 88.5L821.75 151.287H749.25L713 88.5Z" fill="#A7B8D3"/>
  <rect x="190" y="26" width="564" height="125" fill="#A7B8D3"/>
  <path d="M53.7199 88.8733L98.4048 11.9067L187.775 11.9067L232.46 88.8733L187.775 165.84L98.4048 165.84L53.7199 88.8733Z" fill="#18448A"/>
  </g>
  <path d="M135.25 76.86H139.27V104.73H135.25V76.86ZM117.58 79.08H121.54V85.83H127.27V79.08H131.23V98.25H117.58V79.08ZM121.54 88.92V95.04H127.27V88.92H121.54ZM158.678 84.06H165.158V87.27H158.678V84.06ZM163.058 76.92H167.048V97.17H163.058V76.92ZM148.718 101.01H167.678V104.19H148.718V101.01ZM148.718 95.46H152.708V102.9H148.718V95.46ZM150.218 80.55H153.458V82.29C153.458 87.51 150.998 92.34 145.658 94.11L143.648 90.93C148.238 89.43 150.218 85.8 150.218 82.29V80.55ZM151.058 80.55H154.268V82.29C154.268 85.53 156.158 88.98 160.538 90.45L158.588 93.57C153.428 91.86 151.058 87.24 151.058 82.29V80.55ZM144.728 78.78H159.668V81.93H144.728V78.78Z" fill="white"/>
  <path d="M256.772 62.06H258.662V74.372H256.772V62.06ZM258.104 67.28H260.984V68.846H258.104V67.28ZM245.846 63.932H255.53V65.426H245.846V63.932ZM250.688 66.182C253.028 66.182 254.666 67.442 254.666 69.296C254.666 71.168 253.028 72.41 250.688 72.41C248.33 72.41 246.692 71.168 246.692 69.296C246.692 67.442 248.33 66.182 250.688 66.182ZM250.688 67.64C249.392 67.64 248.51 68.27 248.51 69.296C248.51 70.34 249.392 70.952 250.688 70.952C251.984 70.952 252.866 70.34 252.866 69.296C252.866 68.27 251.984 67.64 250.688 67.64ZM249.752 62.042H251.624V64.67H249.752V62.042ZM248.258 76.64H259.328V78.17H248.258V76.64ZM248.258 73.418H250.148V77.288H248.258V73.418ZM266.671 71.87C265.879 71.87 265.285 71.24 265.285 70.412C265.285 69.548 265.879 68.936 266.671 68.936C267.427 68.936 268.057 69.548 268.057 70.412C268.057 71.24 267.427 71.87 266.671 71.87ZM273.587 63.59H281.309V74.462H273.587V63.59ZM279.473 65.084H275.441V72.95H279.473V65.084ZM284.369 62.024H286.259V78.512H284.369V62.024ZM294.026 63.77H301.316V65.282H294.026V63.77ZM296.402 68.468H298.256V74.048H296.402V68.468ZM300.542 63.77H302.414V64.85C302.414 66.308 302.414 68.378 301.946 71.294L300.092 71.132C300.542 68.306 300.542 66.29 300.542 64.85V63.77ZM304.178 62.042H306.05V78.494H304.178V62.042ZM305.528 68.792H308.498V70.376H305.528V68.792ZM293.36 75.02L293.162 73.472C296.096 73.472 300.002 73.418 303.296 73.004L303.386 74.39C300.02 74.948 296.24 75.02 293.36 75.02ZM309.901 63.644H319.585V65.156H309.901V63.644ZM314.743 65.858C317.101 65.858 318.721 67.046 318.721 68.864C318.721 70.664 317.101 71.834 314.743 71.834C312.385 71.834 310.747 70.664 310.747 68.864C310.747 67.046 312.385 65.858 314.743 65.858ZM314.743 67.298C313.447 67.298 312.565 67.874 312.565 68.864C312.565 69.818 313.447 70.412 314.743 70.412C316.039 70.412 316.921 69.818 316.921 68.864C316.921 67.874 316.039 67.298 314.743 67.298ZM320.827 62.042H322.717V72.338H320.827V62.042ZM322.195 66.452H325.039V68H322.195V66.452ZM311.899 73.148H322.717V78.494H320.827V74.66H311.899V73.148ZM313.807 61.952H315.679V64.508H313.807V61.952ZM338.123 62.042H340.013V78.494H338.123V62.042ZM333.299 63.788H335.153C335.153 68.666 333.209 72.806 327.557 75.56L326.567 74.048C331.301 71.762 333.299 68.504 333.299 64.112V63.788ZM327.377 63.788H334.145V65.3H327.377V63.788ZM349.462 62.132H351.064V62.6C351.064 65.372 348.166 67.37 344.386 67.82L343.756 66.398C347.068 66.038 349.462 64.436 349.462 62.6V62.132ZM349.786 62.132H351.388V62.6C351.388 64.436 353.782 66.038 357.076 66.398L356.446 67.82C352.666 67.37 349.786 65.372 349.786 62.6V62.132ZM349.462 69.854H351.334V72.266H349.462V69.854ZM342.982 68.72H357.85V70.214H342.982V68.72ZM344.746 71.582H355.996V75.578H346.636V77.306H344.764V74.228H354.142V73.022H344.746V71.582ZM344.764 76.892H356.464V78.35H344.764V76.892ZM359.558 69.98H374.426V71.492H359.558V69.98ZM366.056 67.424H367.928V70.592H366.056V67.424ZM361.394 66.83H372.716V68.324H361.394V66.83ZM361.394 62.78H372.608V64.274H363.266V67.748H361.394V62.78ZM366.956 72.518C370.484 72.518 372.626 73.598 372.626 75.506C372.626 77.414 370.484 78.494 366.956 78.494C363.428 78.494 361.286 77.414 361.286 75.506C361.286 73.598 363.428 72.518 366.956 72.518ZM366.956 73.958C364.544 73.958 363.194 74.498 363.194 75.506C363.194 76.514 364.544 77.036 366.956 77.036C369.368 77.036 370.718 76.514 370.718 75.506C370.718 74.498 369.368 73.958 366.956 73.958ZM388.249 62.06H390.031V71.978H388.249V62.06ZM385.909 66.2H388.789V67.748H385.909V66.2ZM384.739 62.366H386.503V71.474H384.739V62.366ZM376.765 63.464H383.191V70.646H376.765V63.464ZM381.427 64.922H378.529V69.224H381.427V64.922ZM384.559 72.338C387.961 72.338 390.121 73.49 390.121 75.398C390.121 77.324 387.961 78.476 384.559 78.476C381.139 78.476 378.997 77.324 378.997 75.398C378.997 73.49 381.139 72.338 384.559 72.338ZM384.559 73.796C382.237 73.796 380.851 74.372 380.851 75.398C380.851 76.442 382.237 77.018 384.559 77.018C386.863 77.018 388.231 76.442 388.231 75.398C388.231 74.372 386.863 73.796 384.559 73.796ZM398.735 79.388C397.607 77.576 396.947 75.632 396.947 73.256C396.947 70.88 397.607 68.936 398.735 67.112L399.587 67.496C398.567 69.224 398.087 71.252 398.087 73.256C398.087 75.26 398.567 77.288 399.587 79.016L398.735 79.388ZM401.32 77V68.168H402.724V72.344H402.748L406.108 68.168H407.668L404.932 71.576L408.112 77H406.576L404.08 72.68L402.724 74.348V77H401.32ZM411.645 77.168C410.001 77.168 408.537 75.896 408.537 73.712C408.537 71.504 410.001 70.232 411.645 70.232C413.277 70.232 414.753 71.504 414.753 73.712C414.753 75.896 413.277 77.168 411.645 77.168ZM411.645 76.028C412.677 76.028 413.337 75.104 413.337 73.712C413.337 72.308 412.677 71.384 411.645 71.384C410.601 71.384 409.965 72.308 409.965 73.712C409.965 75.104 410.601 76.028 411.645 76.028ZM416.376 77V70.4H417.504L417.624 71.588H417.66C418.128 70.736 418.824 70.232 419.532 70.232C419.856 70.232 420.06 70.28 420.264 70.376L420.024 71.576C419.796 71.504 419.628 71.468 419.352 71.468C418.824 71.468 418.176 71.852 417.768 72.896V77H416.376ZM423.858 77.168C422.058 77.168 420.642 75.884 420.642 73.712C420.642 71.564 422.118 70.232 423.654 70.232C425.394 70.232 426.342 71.492 426.342 73.364C426.342 73.64 426.318 73.904 426.282 74.072H421.998C422.106 75.332 422.898 76.076 424.038 76.076C424.626 76.076 425.118 75.896 425.61 75.584L426.09 76.472C425.478 76.88 424.722 77.168 423.858 77.168ZM421.974 73.112H425.142C425.142 71.972 424.638 71.324 423.678 71.324C422.85 71.324 422.118 71.96 421.974 73.112ZM429.221 77.168C428.093 77.168 427.289 76.412 427.289 75.248C427.289 73.832 428.489 73.1 431.225 72.8C431.213 72.032 430.937 71.36 429.977 71.36C429.281 71.36 428.621 71.684 428.069 72.044L427.553 71.096C428.225 70.676 429.161 70.232 430.217 70.232C431.861 70.232 432.617 71.276 432.617 73.04V77H431.477L431.369 76.256H431.321C430.721 76.772 430.013 77.168 429.221 77.168ZM429.653 76.064C430.229 76.064 430.685 75.8 431.225 75.296V73.688C429.269 73.916 428.621 74.408 428.621 75.152C428.621 75.8 429.065 76.064 429.653 76.064ZM434.095 74.132V73.1H437.263V74.132H434.095ZM442.224 77.168C440.256 77.168 438.936 76.088 438.936 73.22V68.168H440.328V73.304C440.328 75.296 441.12 75.944 442.224 75.944C443.328 75.944 444.156 75.296 444.156 73.304V68.168H445.5V73.22C445.5 76.088 444.18 77.168 442.224 77.168ZM450.118 77.168C448.894 77.168 447.778 76.688 446.974 75.872L447.79 74.9C448.414 75.536 449.29 75.944 450.142 75.944C451.198 75.944 451.798 75.452 451.798 74.696C451.798 73.892 451.198 73.64 450.382 73.292L449.158 72.752C448.306 72.404 447.37 71.732 447.37 70.448C447.37 69.056 448.582 68.012 450.262 68.012C451.306 68.012 452.278 68.444 452.938 69.128L452.218 70.004C451.666 69.524 451.042 69.224 450.262 69.224C449.362 69.224 448.786 69.656 448.786 70.352C448.786 71.108 449.494 71.396 450.214 71.696L451.426 72.2C452.47 72.644 453.226 73.292 453.226 74.588C453.226 76.004 452.05 77.168 450.118 77.168ZM460.114 77.168C458.89 77.168 457.774 76.688 456.97 75.872L457.786 74.9C458.41 75.536 459.286 75.944 460.138 75.944C461.194 75.944 461.794 75.452 461.794 74.696C461.794 73.892 461.194 73.64 460.378 73.292L459.154 72.752C458.302 72.404 457.366 71.732 457.366 70.448C457.366 69.056 458.578 68.012 460.258 68.012C461.302 68.012 462.274 68.444 462.934 69.128L462.214 70.004C461.662 69.524 461.038 69.224 460.258 69.224C459.358 69.224 458.782 69.656 458.782 70.352C458.782 71.108 459.49 71.396 460.21 71.696L461.422 72.2C462.466 72.644 463.222 73.292 463.222 74.588C463.222 76.004 462.046 77.168 460.114 77.168ZM467.45 77.168C465.674 77.168 464.306 75.896 464.306 73.712C464.306 71.504 465.83 70.232 467.57 70.232C468.41 70.232 469.022 70.568 469.49 71L468.818 71.888C468.458 71.576 468.086 71.384 467.642 71.384C466.514 71.384 465.734 72.308 465.734 73.712C465.734 75.104 466.49 76.028 467.594 76.028C468.146 76.028 468.638 75.764 469.034 75.428L469.598 76.352C468.998 76.88 468.218 77.168 467.45 77.168ZM470.962 77V70.4H472.354V77H470.962ZM471.658 69.164C471.142 69.164 470.806 68.84 470.806 68.336C470.806 67.844 471.142 67.52 471.658 67.52C472.162 67.52 472.522 67.844 472.522 68.336C472.522 68.84 472.162 69.164 471.658 69.164ZM477.179 77.168C475.379 77.168 473.963 75.884 473.963 73.712C473.963 71.564 475.439 70.232 476.975 70.232C478.715 70.232 479.663 71.492 479.663 73.364C479.663 73.64 479.639 73.904 479.603 74.072H475.319C475.427 75.332 476.219 76.076 477.359 76.076C477.947 76.076 478.439 75.896 478.931 75.584L479.411 76.472C478.799 76.88 478.043 77.168 477.179 77.168ZM475.295 73.112H478.463C478.463 71.972 477.959 71.324 476.999 71.324C476.171 71.324 475.439 71.96 475.295 73.112ZM481.216 77V70.4H482.344L482.464 71.324H482.5C483.1 70.724 483.784 70.232 484.684 70.232C486.088 70.232 486.712 71.18 486.712 72.848V77H485.32V73.028C485.32 71.876 484.984 71.432 484.216 71.432C483.604 71.432 483.184 71.744 482.608 72.32V77H481.216ZM491.392 77.168C489.616 77.168 488.248 75.896 488.248 73.712C488.248 71.504 489.772 70.232 491.512 70.232C492.352 70.232 492.964 70.568 493.432 71L492.76 71.888C492.4 71.576 492.028 71.384 491.584 71.384C490.456 71.384 489.676 72.308 489.676 73.712C489.676 75.104 490.432 76.028 491.536 76.028C492.088 76.028 492.58 75.764 492.976 75.428L493.54 76.352C492.94 76.88 492.16 77.168 491.392 77.168ZM497.3 77.168C495.5 77.168 494.084 75.884 494.084 73.712C494.084 71.564 495.56 70.232 497.096 70.232C498.836 70.232 499.784 71.492 499.784 73.364C499.784 73.64 499.76 73.904 499.724 74.072H495.44C495.548 75.332 496.34 76.076 497.48 76.076C498.068 76.076 498.56 75.896 499.052 75.584L499.532 76.472C498.92 76.88 498.164 77.168 497.3 77.168ZM495.416 73.112H498.584C498.584 71.972 498.08 71.324 497.12 71.324C496.292 71.324 495.56 71.96 495.416 73.112ZM506.168 77.168C504.464 77.168 503.396 76.088 503.396 74.696C503.396 71.996 507.464 71.684 507.464 69.848C507.464 69.368 507.236 68.96 506.708 68.96C506.108 68.96 505.7 69.464 505.7 70.148C505.7 71.732 507.548 73.844 509.276 75.044C509.984 75.536 510.668 75.884 511.244 76.028L510.896 77.168C510.128 76.988 509.288 76.568 508.436 75.956C506.42 74.456 504.536 72.008 504.536 70.16C504.536 68.96 505.388 68.012 506.684 68.012C507.848 68.012 508.556 68.756 508.556 69.824C508.556 72.128 504.728 72.776 504.728 74.612C504.728 75.5 505.412 76.076 506.336 76.076C507.044 76.076 507.716 75.692 508.304 75.092C509.012 74.336 509.564 73.352 509.876 72.164H511.16C510.764 73.496 510.152 74.708 509.252 75.728C508.484 76.592 507.476 77.168 506.168 77.168ZM517.12 77V69.344H514.528V68.168H521.116V69.344H518.524V77H517.12ZM524.312 77.168C522.512 77.168 521.096 75.884 521.096 73.712C521.096 71.564 522.572 70.232 524.108 70.232C525.848 70.232 526.796 71.492 526.796 73.364C526.796 73.64 526.772 73.904 526.736 74.072H522.452C522.56 75.332 523.352 76.076 524.492 76.076C525.08 76.076 525.572 75.896 526.064 75.584L526.544 76.472C525.932 76.88 525.176 77.168 524.312 77.168ZM522.428 73.112H525.596C525.596 71.972 525.092 71.324 524.132 71.324C523.304 71.324 522.572 71.96 522.428 73.112ZM531.036 77.168C529.26 77.168 527.892 75.896 527.892 73.712C527.892 71.504 529.416 70.232 531.156 70.232C531.996 70.232 532.608 70.568 533.076 71L532.404 71.888C532.044 71.576 531.672 71.384 531.228 71.384C530.1 71.384 529.32 72.308 529.32 73.712C529.32 75.104 530.076 76.028 531.18 76.028C531.732 76.028 532.224 75.764 532.62 75.428L533.184 76.352C532.584 76.88 531.804 77.168 531.036 77.168ZM534.548 77V67.448H535.94V69.968L535.88 71.276C536.444 70.724 537.116 70.232 538.016 70.232C539.42 70.232 540.044 71.18 540.044 72.848V77H538.652V73.028C538.652 71.876 538.316 71.432 537.548 71.432C536.936 71.432 536.516 71.744 535.94 72.32V77H534.548ZM542.001 77V70.4H543.129L543.249 71.324H543.285C543.885 70.724 544.569 70.232 545.469 70.232C546.873 70.232 547.497 71.18 547.497 72.848V77H546.105V73.028C546.105 71.876 545.769 71.432 545.001 71.432C544.389 71.432 543.969 71.744 543.393 72.32V77H542.001ZM552.141 77.168C550.497 77.168 549.033 75.896 549.033 73.712C549.033 71.504 550.497 70.232 552.141 70.232C553.773 70.232 555.249 71.504 555.249 73.712C555.249 75.896 553.773 77.168 552.141 77.168ZM552.141 76.028C553.173 76.028 553.833 75.104 553.833 73.712C553.833 72.308 553.173 71.384 552.141 71.384C551.097 71.384 550.461 72.308 550.461 73.712C550.461 75.104 551.097 76.028 552.141 76.028ZM558.252 77.168C557.244 77.168 556.872 76.52 556.872 75.452V67.448H558.264V75.524C558.264 75.896 558.42 76.028 558.588 76.028C558.648 76.028 558.696 76.028 558.816 76.004L558.996 77.048C558.816 77.108 558.6 77.168 558.252 77.168ZM563.098 77.168C561.454 77.168 559.99 75.896 559.99 73.712C559.99 71.504 561.454 70.232 563.098 70.232C564.73 70.232 566.206 71.504 566.206 73.712C566.206 75.896 564.73 77.168 563.098 77.168ZM563.098 76.028C564.13 76.028 564.79 75.104 564.79 73.712C564.79 72.308 564.13 71.384 563.098 71.384C562.054 71.384 561.418 72.308 561.418 73.712C561.418 75.104 562.054 76.028 563.098 76.028ZM570.097 79.964C568.513 79.964 567.361 79.376 567.361 78.236C567.361 77.672 567.709 77.156 568.321 76.796V76.736C567.973 76.52 567.721 76.172 567.721 75.632C567.721 75.116 568.081 74.672 568.453 74.408V74.36C568.009 74.024 567.577 73.388 567.577 72.608C567.577 71.108 568.777 70.232 570.133 70.232C570.517 70.232 570.853 70.304 571.105 70.4H573.433V71.444H572.185C572.437 71.708 572.617 72.14 572.617 72.644C572.617 74.096 571.525 74.912 570.133 74.912C569.845 74.912 569.509 74.852 569.209 74.72C569.005 74.9 568.849 75.092 568.849 75.416C568.849 75.8 569.125 76.052 569.953 76.052H571.177C572.737 76.052 573.553 76.532 573.553 77.66C573.553 78.932 572.209 79.964 570.097 79.964ZM570.133 74.024C570.817 74.024 571.381 73.484 571.381 72.608C571.381 71.72 570.829 71.216 570.133 71.216C569.449 71.216 568.897 71.72 568.897 72.608C568.897 73.484 569.461 74.024 570.133 74.024ZM570.301 79.052C571.453 79.052 572.209 78.488 572.209 77.888C572.209 77.336 571.777 77.156 570.973 77.156H569.977C569.665 77.156 569.377 77.132 569.101 77.06C568.705 77.36 568.537 77.696 568.537 78.032C568.537 78.668 569.209 79.052 570.301 79.052ZM575.196 79.76C574.86 79.76 574.596 79.712 574.368 79.628L574.632 78.548C574.752 78.596 574.944 78.644 575.112 78.644C575.82 78.644 576.252 78.116 576.492 77.408L576.624 76.952L574.008 70.4H575.424L576.636 73.796C576.84 74.384 577.032 75.044 577.248 75.668H577.308C577.464 75.056 577.644 74.408 577.812 73.796L578.88 70.4H580.224L577.8 77.408C577.284 78.812 576.588 79.76 575.196 79.76ZM583.074 77L585.99 68.168H587.61L590.526 77H589.05L587.634 72.212C587.334 71.252 587.07 70.256 586.794 69.272H586.746C586.482 70.268 586.218 71.252 585.918 72.212L584.49 77H583.074ZM584.718 74.492V73.4H588.846V74.492H584.718ZM592.951 77.168C591.943 77.168 591.571 76.52 591.571 75.452V67.448H592.963V75.524C592.963 75.896 593.119 76.028 593.287 76.028C593.347 76.028 593.395 76.028 593.515 76.004L593.695 77.048C593.515 77.108 593.299 77.168 592.951 77.168ZM596.525 77.168C595.517 77.168 595.145 76.52 595.145 75.452V67.448H596.537V75.524C596.537 75.896 596.693 76.028 596.861 76.028C596.921 76.028 596.969 76.028 597.089 76.004L597.269 77.048C597.089 77.108 596.873 77.168 596.525 77.168ZM598.72 77V70.4H600.112V77H598.72ZM599.416 69.164C598.9 69.164 598.564 68.84 598.564 68.336C598.564 67.844 598.9 67.52 599.416 67.52C599.92 67.52 600.28 67.844 600.28 68.336C600.28 68.84 599.92 69.164 599.416 69.164ZM603.737 77.168C602.609 77.168 601.805 76.412 601.805 75.248C601.805 73.832 603.005 73.1 605.741 72.8C605.729 72.032 605.453 71.36 604.493 71.36C603.797 71.36 603.137 71.684 602.585 72.044L602.069 71.096C602.741 70.676 603.677 70.232 604.733 70.232C606.377 70.232 607.133 71.276 607.133 73.04V77H605.993L605.885 76.256H605.837C605.237 76.772 604.529 77.168 603.737 77.168ZM604.169 76.064C604.745 76.064 605.201 75.8 605.741 75.296V73.688C603.785 73.916 603.137 74.408 603.137 75.152C603.137 75.8 603.581 76.064 604.169 76.064ZM609.079 77V70.4H610.207L610.327 71.324H610.363C610.963 70.724 611.647 70.232 612.547 70.232C613.951 70.232 614.575 71.18 614.575 72.848V77H613.183V73.028C613.183 71.876 612.847 71.432 612.079 71.432C611.467 71.432 611.047 71.744 610.471 72.32V77H609.079ZM619.255 77.168C617.479 77.168 616.111 75.896 616.111 73.712C616.111 71.504 617.635 70.232 619.375 70.232C620.215 70.232 620.827 70.568 621.295 71L620.623 71.888C620.263 71.576 619.891 71.384 619.447 71.384C618.319 71.384 617.539 72.308 617.539 73.712C617.539 75.104 618.295 76.028 619.399 76.028C619.951 76.028 620.443 75.764 620.839 75.428L621.403 76.352C620.803 76.88 620.023 77.168 619.255 77.168ZM625.163 77.168C623.363 77.168 621.947 75.884 621.947 73.712C621.947 71.564 623.423 70.232 624.959 70.232C626.699 70.232 627.647 71.492 627.647 73.364C627.647 73.64 627.623 73.904 627.587 74.072H623.303C623.411 75.332 624.203 76.076 625.343 76.076C625.931 76.076 626.423 75.896 626.915 75.584L627.395 76.472C626.783 76.88 626.027 77.168 625.163 77.168ZM623.279 73.112H626.447C626.447 71.972 625.943 71.324 624.983 71.324C624.155 71.324 623.423 71.96 623.279 73.112ZM629.584 79.388L628.72 79.016C629.74 77.288 630.232 75.26 630.232 73.256C630.232 71.252 629.74 69.224 628.72 67.496L629.584 67.112C630.7 68.936 631.36 70.88 631.36 73.256C631.36 75.632 630.7 77.576 629.584 79.388ZM639.098 63.068H649.394V64.562H639.098V63.068ZM637.316 70.088H652.184V71.636H637.316V70.088ZM643.742 71.15H645.632V78.512H643.742V71.15ZM648.458 63.068H650.312V64.508C650.312 66.254 650.312 68.198 649.682 71.042L647.828 70.808C648.458 68.108 648.458 66.182 648.458 64.508V63.068ZM665.611 62.06H667.501V74.588H665.611V62.06ZM663.109 66.29H666.349V67.82H663.109V66.29ZM663.109 69.782H666.349V71.294H663.109V69.782ZM653.893 63.932H663.037V65.426H653.893V63.932ZM658.537 66.182C660.751 66.182 662.317 67.478 662.317 69.368C662.317 71.258 660.751 72.554 658.537 72.554C656.323 72.554 654.757 71.258 654.757 69.368C654.757 67.478 656.323 66.182 658.537 66.182ZM658.537 67.658C657.349 67.658 656.539 68.324 656.539 69.368C656.539 70.43 657.349 71.096 658.537 71.096C659.725 71.096 660.553 70.43 660.553 69.368C660.553 68.324 659.725 67.658 658.537 67.658ZM657.619 62.024H659.491V64.868H657.619V62.024ZM656.791 76.64H667.879V78.17H656.791V76.64ZM656.791 73.526H658.681V77.36H656.791V73.526ZM677.849 62.294C681.539 62.294 683.717 63.302 683.717 65.138C683.717 66.956 681.539 67.964 677.849 67.964C674.159 67.964 671.999 66.956 671.999 65.138C671.999 63.302 674.159 62.294 677.849 62.294ZM677.849 63.698C675.311 63.698 673.943 64.202 673.943 65.138C673.943 66.074 675.311 66.56 677.849 66.56C680.405 66.56 681.755 66.074 681.755 65.138C681.755 64.202 680.405 63.698 677.849 63.698ZM670.415 68.918H685.283V70.412H670.415V68.918ZM672.179 71.618H683.429V75.542H674.069V77.306H672.197V74.21H681.575V73.022H672.179V71.618ZM672.197 76.892H683.897V78.35H672.197V76.892ZM696.381 62.762C698.847 62.762 700.629 64.166 700.629 66.2C700.629 68.234 698.847 69.656 696.381 69.656C693.915 69.656 692.133 68.234 692.133 66.2C692.133 64.166 693.915 62.762 696.381 62.762ZM696.381 64.31C694.959 64.31 693.951 65.048 693.951 66.2C693.951 67.37 694.959 68.09 696.381 68.09C697.803 68.09 698.829 67.37 698.829 66.2C698.829 65.048 697.803 64.31 696.381 64.31ZM695.517 71.402H697.407V77.99H695.517V71.402ZM702.753 62.042H704.625V78.494H702.753V62.042ZM691.269 72.41L691.035 70.844C694.005 70.844 698.127 70.808 701.691 70.268L701.817 71.654C698.163 72.356 694.203 72.392 691.269 72.41ZM718.538 62.06H720.428V74.372H718.538V62.06ZM719.87 67.28H722.75V68.846H719.87V67.28ZM707.612 63.932H717.296V65.426H707.612V63.932ZM712.454 66.182C714.794 66.182 716.432 67.442 716.432 69.296C716.432 71.168 714.794 72.41 712.454 72.41C710.096 72.41 708.458 71.168 708.458 69.296C708.458 67.442 710.096 66.182 712.454 66.182ZM712.454 67.64C711.158 67.64 710.276 68.27 710.276 69.296C710.276 70.34 711.158 70.952 712.454 70.952C713.75 70.952 714.632 70.34 714.632 69.296C714.632 68.27 713.75 67.64 712.454 67.64ZM711.518 62.042H713.39V64.67H711.518V62.042ZM710.024 76.64H721.094V78.17H710.024V76.64ZM710.024 73.418H711.914V77.288H710.024V73.418ZM246.674 103.41H254.468V111.204H246.674V103.41ZM252.632 104.922H248.51V109.692H252.632V104.922ZM257.492 102.06H259.382V113.814H257.492V102.06ZM248.636 116.514H259.85V118.044H248.636V116.514ZM248.636 112.716H250.526V117.162H248.636V112.716ZM273.313 102.042H275.221V113.958H273.313V102.042ZM274.663 106.848H277.543V108.414H274.663V106.848ZM268.795 103.302H270.793C270.793 107.64 267.931 110.754 263.125 112.212L262.333 110.7C266.419 109.494 268.795 107.1 268.795 104.184V103.302ZM263.017 103.302H269.785V104.832H263.017V103.302ZM264.799 116.64H275.869V118.17H264.799V116.64ZM264.799 112.752H266.689V117.288H264.799V112.752ZM278.927 111.654H293.831V113.166H278.927V111.654ZM285.389 112.392H287.261V118.494H285.389V112.392ZM280.727 102.69H282.599V104.778H290.123V102.69H291.995V109.872H280.727V102.69ZM282.599 106.272V108.36H290.123V106.272H282.599ZM295.486 110.322H310.39V111.834H295.486V110.322ZM302.146 111.276H304.018V114.912H302.146V111.276ZM297.358 102.78H308.464V108.702H297.358V102.78ZM306.61 104.274H299.212V107.208H306.61V104.274ZM297.304 116.64H308.734V118.17H297.304V116.64ZM297.304 113.418H299.176V117.162H297.304V113.418ZM327.049 102.06H328.939V114.372H327.049V102.06ZM328.381 107.28H331.261V108.846H328.381V107.28ZM316.123 103.932H325.807V105.426H316.123V103.932ZM320.965 106.182C323.305 106.182 324.943 107.442 324.943 109.296C324.943 111.168 323.305 112.41 320.965 112.41C318.607 112.41 316.969 111.168 316.969 109.296C316.969 107.442 318.607 106.182 320.965 106.182ZM320.965 107.64C319.669 107.64 318.787 108.27 318.787 109.296C318.787 110.34 319.669 110.952 320.965 110.952C322.261 110.952 323.143 110.34 323.143 109.296C323.143 108.27 322.261 107.64 320.965 107.64ZM320.029 102.042H321.901V104.67H320.029V102.042ZM318.535 116.64H329.605V118.17H318.535V116.64ZM318.535 113.418H320.425V117.288H318.535V113.418ZM336.948 111.87C336.156 111.87 335.562 111.24 335.562 110.412C335.562 109.548 336.156 108.936 336.948 108.936C337.704 108.936 338.334 109.548 338.334 110.412C338.334 111.24 337.704 111.87 336.948 111.87ZM343.864 103.59H351.586V114.462H343.864V103.59ZM349.75 105.084H345.718V112.95H349.75V105.084ZM354.646 102.024H356.536V118.512H354.646V102.024ZM364.303 103.77H371.593V105.282H364.303V103.77ZM366.679 108.468H368.533V114.048H366.679V108.468ZM370.819 103.77H372.691V104.85C372.691 106.308 372.691 108.378 372.223 111.294L370.369 111.132C370.819 108.306 370.819 106.29 370.819 104.85V103.77ZM374.455 102.042H376.327V118.494H374.455V102.042ZM375.805 108.792H378.775V110.376H375.805V108.792ZM363.637 115.02L363.439 113.472C366.373 113.472 370.279 113.418 373.573 113.004L373.663 114.39C370.297 114.948 366.517 115.02 363.637 115.02ZM380.178 103.644H389.862V105.156H380.178V103.644ZM385.02 105.858C387.378 105.858 388.998 107.046 388.998 108.864C388.998 110.664 387.378 111.834 385.02 111.834C382.662 111.834 381.024 110.664 381.024 108.864C381.024 107.046 382.662 105.858 385.02 105.858ZM385.02 107.298C383.724 107.298 382.842 107.874 382.842 108.864C382.842 109.818 383.724 110.412 385.02 110.412C386.316 110.412 387.198 109.818 387.198 108.864C387.198 107.874 386.316 107.298 385.02 107.298ZM391.104 102.042H392.994V112.338H391.104V102.042ZM392.472 106.452H395.316V108H392.472V106.452ZM382.176 113.148H392.994V118.494H391.104V114.66H382.176V113.148ZM384.084 101.952H385.956V104.508H384.084V101.952ZM408.401 102.042H410.291V118.494H408.401V102.042ZM403.577 103.788H405.431C405.431 108.666 403.487 112.806 397.835 115.56L396.845 114.048C401.579 111.762 403.577 108.504 403.577 104.112V103.788ZM397.655 103.788H404.423V105.3H397.655V103.788ZM419.739 102.132H421.341V102.6C421.341 105.372 418.443 107.37 414.663 107.82L414.033 106.398C417.345 106.038 419.739 104.436 419.739 102.6V102.132ZM420.063 102.132H421.665V102.6C421.665 104.436 424.059 106.038 427.353 106.398L426.723 107.82C422.943 107.37 420.063 105.372 420.063 102.6V102.132ZM419.739 109.854H421.611V112.266H419.739V109.854ZM413.259 108.72H428.127V110.214H413.259V108.72ZM415.023 111.582H426.273V115.578H416.913V117.306H415.041V114.228H424.419V113.022H415.023V111.582ZM415.041 116.892H426.741V118.35H415.041V116.892ZM439.088 105.732H442.292V107.262H439.088V105.732ZM439.07 108.954H442.256V110.466H439.07V108.954ZM429.854 103.572H438.998V105.084H429.854V103.572ZM434.498 105.75C436.73 105.75 438.278 106.938 438.278 108.72C438.278 110.502 436.73 111.672 434.498 111.672C432.284 111.672 430.718 110.502 430.718 108.72C430.718 106.938 432.284 105.75 434.498 105.75ZM434.498 107.154C433.292 107.154 432.482 107.748 432.482 108.72C432.482 109.692 433.292 110.286 434.498 110.286C435.704 110.286 436.532 109.692 436.532 108.72C436.532 107.748 435.704 107.154 434.498 107.154ZM433.58 101.898H435.452V104.562H433.58V101.898ZM441.572 102.042H443.462V111.798H441.572V102.042ZM432.662 112.464H434.516V113.94H441.59V112.464H443.462V118.296H432.662V112.464ZM434.516 115.362V116.82H441.59V115.362H434.516ZM447.042 110.052H448.248C451.416 110.052 453.018 109.998 454.926 109.656L455.124 111.168C453.144 111.528 451.488 111.582 448.248 111.582H447.042V110.052ZM447.006 103.014H454.152V107.91H448.914V111.024H447.042V106.47H452.298V104.526H447.006V103.014ZM458.13 102.06H460.02V112.176H458.13V102.06ZM455.178 104.418H458.508V105.93H455.178V104.418ZM455.178 107.856H458.508V109.386H455.178V107.856ZM448.896 113.004H460.02V118.512H458.13V114.516H448.896V113.004ZM468.263 103.194C470.837 103.194 472.709 104.814 472.709 107.136C472.709 109.476 470.837 111.096 468.263 111.096C465.689 111.096 463.781 109.476 463.781 107.136C463.781 104.814 465.689 103.194 468.263 103.194ZM468.263 104.814C466.751 104.814 465.635 105.714 465.635 107.136C465.635 108.558 466.751 109.476 468.263 109.476C469.757 109.476 470.873 108.558 470.873 107.136C470.873 105.714 469.757 104.814 468.263 104.814ZM474.599 102.024H476.489V118.512H474.599V102.024ZM463.259 115.038L463.025 113.49C465.977 113.49 470.063 113.454 473.609 112.932L473.753 114.3C470.117 115.002 466.157 115.038 463.259 115.038ZM494.409 102.024H496.299V118.476H494.409V102.024ZM495.795 108.54H498.765V110.088H495.795V108.54ZM490.143 103.77H491.997C491.997 108.558 489.963 112.788 484.581 115.488L483.519 114.048C487.965 111.78 490.143 108.486 490.143 104.094V103.77ZM484.347 103.77H491.115V105.3H484.347V103.77ZM501.607 103.572H512.101V105.102H501.607V103.572ZM500.113 114.786H514.981V116.334H500.113V114.786ZM503.515 109.476H505.387V115.308H503.515V109.476ZM511.543 103.572H513.415V105.3C513.415 107.352 513.415 109.548 512.839 112.734L510.967 112.536C511.543 109.53 511.543 107.298 511.543 105.3V103.572ZM507.583 109.476H509.437V115.308H507.583V109.476ZM520.11 120.582C518.418 117.864 517.428 114.948 517.428 111.384C517.428 107.82 518.418 104.904 520.11 102.168L521.388 102.744C519.858 105.336 519.138 108.378 519.138 111.384C519.138 114.39 519.858 117.432 521.388 120.024L520.11 120.582ZM523.268 111.546H539.09V113.058H523.268V111.546ZM530.324 109.998H532.106V118.548H530.324V109.998ZM529.766 112.464L531.098 113.04C529.478 115.272 526.67 117.252 524.006 118.242C523.754 117.828 523.25 117.18 522.89 116.856C525.5 116.046 528.326 114.318 529.766 112.464ZM532.628 112.41C534.05 114.282 536.858 115.902 539.576 116.658C539.216 117 538.694 117.648 538.442 118.08C535.706 117.144 532.88 115.236 531.242 113.022L532.628 112.41ZM523.214 103.662H530.234V105.156H523.214V103.662ZM529.532 103.662H531.17C531.17 103.662 531.152 104.094 531.134 104.31C530.954 107.55 530.774 108.882 530.36 109.386C530.036 109.746 529.694 109.872 529.226 109.926C528.83 109.98 528.11 109.98 527.372 109.944C527.336 109.494 527.174 108.846 526.922 108.45C527.588 108.504 528.164 108.522 528.434 108.522C528.668 108.522 528.812 108.486 528.956 108.342C529.226 108.036 529.388 106.92 529.532 103.914V103.662ZM525.896 101.826H527.552C527.372 105.912 526.886 108.9 523.862 110.574C523.664 110.178 523.196 109.566 522.818 109.296C525.464 107.892 525.788 105.39 525.896 101.826ZM533.852 104.706V108.09H537.056V104.706H533.852ZM532.25 103.23H538.766V109.566H532.25V103.23ZM547.028 104.778H557.378V106.11H547.028V104.778ZM550.646 108.144V109.458H553.598V108.144H550.646ZM549.206 107.082H555.092V110.52H549.206V107.082ZM547.208 111.258H556.28V112.554H548.774V118.53H547.208V111.258ZM555.542 111.258H557.126V116.856C557.126 117.594 557 118.008 556.46 118.26C555.92 118.494 555.164 118.494 554.048 118.494C553.976 118.08 553.742 117.486 553.544 117.09C554.3 117.126 555.038 117.126 555.254 117.108C555.488 117.09 555.542 117.036 555.542 116.838V111.258ZM555.416 102.006L556.388 103.122C554.12 103.626 550.574 103.896 547.694 103.914C547.658 103.608 547.496 103.086 547.334 102.78C550.124 102.69 553.544 102.438 555.416 102.006ZM554.084 105.246C554.84 106.614 556.352 107.964 557.864 108.63C557.504 108.9 557.036 109.458 556.802 109.836C555.236 109.008 553.706 107.334 552.86 105.678L554.084 105.246ZM550.7 103.446L552.266 103.662C551.582 106.02 550.16 108.27 547.442 109.854C547.226 109.476 546.74 108.954 546.398 108.738C548.918 107.388 550.214 105.354 550.7 103.446ZM550.61 113.418H554.444V116.838H550.61V115.794H553.202V114.444H550.61V113.418ZM549.872 113.418H551.114V117.594H549.872V113.418ZM541.124 105.642H546.83V107.226H541.124V105.642ZM543.392 101.808H544.94V118.512H543.392V101.808ZM543.374 106.668L544.364 106.992C543.86 109.836 542.78 113.382 541.538 115.2C541.358 114.75 540.98 114.102 540.728 113.706C541.862 112.104 542.942 109.098 543.374 106.668ZM544.832 108.27C545.228 108.756 546.686 111.042 547.01 111.546L546.128 112.77C545.75 111.816 544.598 109.692 544.148 108.936L544.832 108.27ZM560.384 120.582L559.088 120.024C560.618 117.432 561.356 114.39 561.356 111.384C561.356 108.378 560.618 105.336 559.088 102.744L560.384 102.168C562.058 104.904 563.048 107.82 563.048 111.384C563.048 114.948 562.058 117.864 560.384 120.582Z" fill="black" fill-opacity="0.8"/>
  <defs>
  <filter id="filter0_d_0_1" x="0" y="11.9067" width="858" height="167.933" filterUnits="userSpaceOnUse" color-interpolation-filters="sRGB">
  <feFlood flood-opacity="0" result="BackgroundImageFix"/>
  <feColorMatrix in="SourceAlpha" type="matrix" values="0 0 0 0 0 0 0 0 0 0 0 0 0 0 0 0 0 0 127 0" result="hardAlpha"/>
  <feOffset dx="-10" dy="10"/>
  <feGaussianBlur stdDeviation="2"/>
  <feComposite in2="hardAlpha" operator="out"/>
  <feColorMatrix type="matrix" values="0 0 0 0 0 0 0 0 0 0 0 0 0 0 0 0 0 0 0.25 0"/>
  <feBlend mode="normal" in2="BackgroundImageFix" result="effect1_dropShadow_0_1"/>
  <feBlend mode="normal" in="SourceGraphic" in2="effect1_dropShadow_0_1" result="shape"/>
  </filter>
  </defs>
  </svg>
  