<svg width="38" height="22" viewBox="0 0 38 22" fill="none" xmlns="http://www.w3.org/2000/svg">
  <path d="M24.2476 19.9086C23.4333 19.9321 22.6567 19.9497 21.9179 19.9614C21.179 19.9732 20.523 19.979 19.95 19.979H18.0952C15.954 19.979 13.9484 19.9556 12.0786 19.9086C10.4802 19.8616 8.90436 19.797 7.35119 19.7148C5.79802 19.6326 4.6746 19.521 3.98095 19.3801C3.19683 19.2157 2.51825 18.9104 1.94524 18.4641C1.37222 18.0178 0.980159 17.4893 0.769048 16.8787C0.588095 16.3384 0.444841 15.6808 0.339286 14.9057C0.23373 14.1306 0.150794 13.3907 0.0904762 12.6861C0.0301587 11.8405 0 10.9832 0 10.1142C0 9.24514 0.0301587 8.38784 0.0904762 7.54228C0.150794 6.83765 0.23373 6.09778 0.339286 5.32268C0.444841 4.54759 0.588095 3.88993 0.769048 3.34971C0.980159 2.73903 1.37222 2.21056 1.94524 1.76429C2.51825 1.31802 3.19683 1.01268 3.98095 0.848266C4.6746 0.70734 5.79802 0.595773 7.35119 0.513566C8.90436 0.431359 10.4802 0.366767 12.0786 0.319792C13.9484 0.272816 15.954 0.249329 18.0952 0.249329C20.2365 0.249329 22.2421 0.272816 24.1119 0.319792C25.7103 0.366767 27.2861 0.431359 28.8393 0.513566C30.3925 0.595773 31.5159 0.70734 32.2095 0.848266C32.9937 1.01268 33.6722 1.31802 34.2452 1.76429C34.8183 2.21056 35.2103 2.73903 35.4214 3.34971C35.6024 3.88993 35.7456 4.54759 35.8512 5.32268C35.9567 6.09778 36.0397 6.83765 36.1 7.54228C36.1603 8.38784 36.1905 9.24514 36.1905 10.1142V10.7131C35.6175 10.5252 35.0294 10.3784 34.4262 10.2727C33.823 10.167 33.2048 10.1142 32.5714 10.1142C30.0683 10.1142 27.9345 10.8012 26.1702 12.1752C24.406 13.5493 23.5238 15.211 23.5238 17.1605C23.5238 17.6538 23.5841 18.1294 23.7048 18.5874C23.8254 19.0454 24.0063 19.4858 24.2476 19.9086ZM14.4762 14.342L23.8857 10.1142L14.4762 5.88639V14.342ZM30.7619 21.3883V18.5698H27.1429V15.7512H30.7619V12.9327H34.381V15.7512H38V18.5698H34.381V21.3883H30.7619Z" fill="#B52626"/>
  </svg>
  